# Blender v2.82 (sub 7) OBJ File: 'landingpage.blend'
# www.blender.org
mtllib butterfly.mtl
o ObjObject
v 16.810352 46.586372 7.237616
v 15.948205 46.888107 4.439731
v 16.123981 46.060532 7.566482
v 6.995114 41.435734 2.903554
v 7.435497 41.646343 3.001853
v 7.542283 41.735893 2.484304
v 8.902861 42.686550 3.257231
v 8.782442 42.954533 2.126629
v 10.260599 43.143539 4.463711
v 9.799389 43.857933 1.329459
v 11.618156 43.884262 4.846292
v 11.110865 44.928967 0.930296
v 12.811293 45.095024 3.836937
v 12.368667 45.708393 0.963351
v 13.678623 46.468464 1.084503
v 14.385410 45.400810 6.436718
v 12.734083 44.647938 5.395974
v 13.481755 46.911278 0.558974
v 14.233747 46.823078 1.099091
v 14.261079 46.823078 0.059099
v 13.703677 46.468464 0.131176
v 12.150177 46.096752 0.523980
v 12.391442 45.708393 0.096691
v 11.133640 44.928967 0.063635
v 10.911718 45.371780 0.491433
v 10.105125 44.309299 0.470235
v 16.471331 46.006081 -6.387256
v 16.064047 46.825779 -3.145739
v 17.069120 46.496819 -6.154731
v 7.599452 41.755245 -1.763761
v 7.549970 41.564667 -2.458868
v 7.208386 41.498062 -2.034216
v 8.741359 42.911556 -1.560300
v 9.091870 42.795452 -2.461710
v 9.930667 43.920261 -0.488334
v 10.203669 43.240292 -3.733381
v 11.668968 43.887863 -4.041775
v 12.944564 44.986122 -2.707364
v 14.526945 45.093452 -5.441007
v 12.869315 44.476707 -4.400496
v 16.083328 48.030914 -1.584166
v 16.150272 48.066017 -1.322230
v 16.259897 48.182793 -1.579526
v 15.450631 47.330242 -0.993713
v 15.491019 47.466373 -0.689111
v 16.075657 48.147694 2.621837
v 15.960917 48.003689 2.705548
v 16.014393 48.167042 2.880405
v 15.350054 47.431271 1.865598
v 15.213872 47.415520 2.165560
v 13.995943 46.115204 0.572487
v 12.664365 45.300678 0.537493
v 11.406564 44.521255 0.504437
vt 0.934619 0.423206
vt 0.763468 0.496571
vt 0.963868 0.496571
vt 0.871226 0.867643
vt 0.908406 0.890990
vt 0.931589 0.867643
vt 0.268498 0.550089
vt 0.268498 0.705395
vt 0.338786 0.689031
vt 0.562709 0.282212
vt 0.723610 0.282212
vt 0.571570 0.250526
vt 0.588904 0.904860
vt 0.775356 0.852054
vt 0.588904 0.775733
vt 0.643201 0.953620
vt 0.782689 0.906080
vt 0.588904 0.906080
vt 0.000610 0.691901
vt 0.267278 0.691901
vt 0.055315 0.550089
vt 0.735513 0.249306
vt 0.829378 0.145729
vt 0.562709 0.145729
vt 0.000610 0.910238
vt 0.232809 0.910238
vt 0.081118 0.806126
vt 0.587684 0.756567
vt 0.587684 0.594869
vt 0.360180 0.641325
vt 0.780636 0.667133
vt 0.894638 0.811539
vt 0.894638 0.594869
vt 0.459620 0.421987
vt 0.626020 0.290296
vt 0.287563 0.290296
vt 0.418882 0.947182
vt 0.572329 0.865371
vt 0.360122 0.865371
vt 0.286344 0.421987
vt 0.286344 0.198169
vt 0.000610 0.240579
vt 0.779416 0.594869
vt 0.588904 0.657040
vt 0.779416 0.774513
vt 0.542692 0.202616
vt 0.542692 0.277785
vt 0.501285 0.236336
vt 0.895858 0.735922
vt 0.964413 0.705092
vt 0.964413 0.766753
vt 0.525954 0.948401
vt 0.529096 0.998912
vt 0.470284 0.998912
vt 0.812328 0.288835
vt 0.951151 0.287108
vt 0.947249 0.340366
vt 0.812328 0.336487
vt 0.815234 0.053047
vt 0.950113 0.053048
vt 0.953647 0.103532
vt 0.814842 0.100698
vt 0.830597 0.145729
vt 0.962176 0.148548
vt 0.961969 0.196199
vt 0.834332 0.196199
vt 0.834551 0.197419
vt 0.962187 0.197973
vt 0.962187 0.245625
vt 0.830597 0.247872
vt 0.234029 0.910238
vt 0.341336 0.859659
vt 0.343032 0.910238
vt 0.360122 0.952054
vt 0.469064 0.948401
vt 0.469064 0.999009
vt 0.767628 0.497790
vt 0.963407 0.568028
vt 0.763468 0.568029
vt 0.347917 0.956327
vt 0.312471 0.928817
vt 0.347917 0.911458
vt 0.915532 0.812759
vt 0.946863 0.866423
vt 0.780636 0.866423
vt 0.015286 0.911458
vt 0.176015 0.953859
vt 0.000610 0.953859
vt 0.762249 0.576695
vt 0.586556 0.475717
vt 0.762249 0.423206
vt 0.908201 0.275964
vt 0.724829 0.275964
vt 0.851505 0.250526
vt 0.813623 0.144510
vt 0.562709 0.063087
vt 0.813623 0.000610
vt 0.259185 0.804906
vt 0.000610 0.804906
vt 0.090163 0.693121
vt 0.510177 0.864152
vt 0.360122 0.757787
vt 0.587684 0.757787
vt 0.585337 0.560653
vt 0.360180 0.593649
vt 0.360180 0.423206
vt 0.811109 0.421987
vt 0.627240 0.291806
vt 0.811109 0.287108
vt 0.358960 0.548869
vt 0.000610 0.548869
vt 0.171975 0.423206
vt 0.500065 0.289076
vt 0.287563 0.289076
vt 0.431292 0.202616
vt 0.358960 0.000610
vt 0.152891 0.196949
vt 0.000610 0.000610
vt 0.360180 0.000610
vt 0.561490 0.146256
vt 0.360180 0.198574
vt 0.543911 0.209627
vt 0.559445 0.202616
vt 0.559445 0.223330
vt 0.782261 0.889684
vt 0.780636 0.867643
vt 0.870006 0.867643
vt 0.901699 0.421987
vt 0.812328 0.421987
vt 0.897858 0.405383
vt 0.268090 0.706614
vt 0.290155 0.835057
vt 0.268090 0.836329
vt 0.543911 0.241592
vt 0.543911 0.224549
vt 0.558932 0.235394
vt 0.243404 0.858439
vt 0.238480 0.837673
vt 0.343032 0.837673
vt 0.691108 0.587425
vt 0.586556 0.587425
vt 0.676966 0.577915
vt 0.763468 0.590283
vt 0.882487 0.569248
vt 0.886094 0.590283
vt 0.814842 0.104752
vt 0.888414 0.104752
vt 0.844271 0.143614
vt 0.919145 0.962066
vt 0.966877 0.906080
vt 0.992716 0.962066
vt 0.999390 0.807836
vt 0.999390 0.866423
vt 0.948083 0.813694
vt 0.816048 0.341586
vt 0.954852 0.344433
vt 0.947207 0.392577
vt 0.812328 0.392577
vt 0.786316 0.906081
vt 0.917925 0.906080
vt 0.915518 0.957150
vt 0.783909 0.957151
vt 0.895858 0.594869
vt 0.946872 0.700481
vt 0.895858 0.703872
vt 0.338786 0.804767
vt 0.291375 0.823902
vt 0.291375 0.706614
vt 0.311251 0.962528
vt 0.179642 0.962528
vt 0.177235 0.911458
vt 0.308843 0.911458
vt 0.949819 0.000610
vt 0.956415 0.051828
vt 0.817581 0.051663
vt 0.814842 0.000610
vn -0.5122 0.8227 0.2466
vn -0.4978 0.8329 0.2418
vn -0.4968 0.8316 0.2480
vn -0.4421 0.8947 0.0636
vn -0.5200 0.8533 0.0380
vn -0.5597 0.8159 0.1451
vn -0.5698 0.8101 0.1381
vn -0.5547 0.7933 0.2509
vn -0.5122 0.8194 0.2572
vn -0.5340 0.8015 0.2691
vn -0.5409 0.7954 0.2733
vn -0.4610 0.7709 -0.4395
vn -0.5305 0.8105 0.2486
vn -0.4411 0.7797 -0.4444
vn -0.4196 0.8109 -0.4079
vn -0.5043 0.8318 0.2318
vn -0.5133 0.8314 0.2130
vn 0.2523 -0.8498 -0.4628
vn 0.0423 -0.6374 -0.7694
vn 0.1451 -0.1562 -0.9770
vn 0.3185 -0.8862 0.3364
vn 0.1313 -0.8446 0.5190
vn 0.1353 -0.8713 -0.4717
vn 0.2641 -0.7580 0.5963
vn 0.0527 -0.0212 0.9984
vn 0.0844 -0.5789 0.8110
vn 0.3891 -0.6003 -0.6988
vn 0.2087 -0.2666 -0.9409
vn 0.0821 -0.1788 0.9805
vn 0.3350 -0.5843 0.7391
vn 0.2577 -0.2016 0.9450
vn 0.4317 -0.5056 0.7470
vn 0.4496 -0.5288 -0.7198
vn 0.1947 0.0053 -0.9808
vn 0.3848 0.0058 -0.9230
vn 0.3358 0.0058 0.9419
vn -0.5306 0.8035 -0.2699
vn -0.5202 0.8100 -0.2708
vn -0.5464 0.7931 -0.2692
vn -0.5620 0.7834 -0.2653
vn -0.5435 0.8185 -0.1865
vn -0.4318 0.8772 -0.2098
vn -0.5949 0.7480 -0.2942
vn -0.6400 0.7217 -0.2639
vn -0.5045 0.8300 -0.2380
vn -0.5354 0.8028 -0.2624
vn -0.4842 0.8385 0.2499
vn -0.4687 0.8467 -0.2519
vn -0.4351 0.6974 0.5695
vn -0.4833 0.8291 -0.2809
vn -0.4348 0.8047 0.4043
vn -0.5038 0.8226 -0.2636
vn -0.4655 0.8530 -0.2360
vn -0.7118 0.7016 -0.0333
vn -0.6439 0.7625 0.0628
vn -0.6517 0.7557 0.0653
vn -0.7158 0.6686 -0.2016
vn -0.6458 0.7564 -0.1039
vn -0.6487 0.6924 0.3159
vn -0.7032 0.7105 -0.0254
vn -0.7752 0.6227 -0.1067
vn -0.8221 0.5192 -0.2336
vn -0.4692 0.8675 -0.1650
vn -0.6129 0.7901 -0.0096
vn -0.6001 0.6987 -0.3896
vn -0.6378 0.5903 0.4947
vn -0.6744 0.6034 0.4256
vn -0.4311 0.7399 0.5164
vn -0.6721 0.7401 0.0226
vn -0.6273 0.6782 -0.3829
vn -0.7264 0.6672 0.1648
vn -0.3561 0.6349 -0.6856
vn -0.5794 0.5892 -0.5632
vn -0.6492 0.5990 -0.4688
vn -0.3643 0.5712 0.7355
vn -0.3018 0.4662 0.8316
vn -0.2819 0.6103 0.7403
vn -0.2888 0.6783 0.6756
vn 0.1555 0.3046 0.9397
vn -0.3618 0.7534 -0.5490
vn -0.2133 0.6276 -0.7488
vn 0.2046 0.3046 -0.9302
vn -0.3256 0.5899 -0.7389
vn -0.2244 0.4485 -0.8652
usemtl None
s 1
f 1/1/1 2/2/2 3/3/3
f 4/4/4 5/5/5 6/6/6
f 6/7/6 7/8/7 8/9/8
f 5/10/5 7/11/7 6/12/6
f 8/13/8 9/14/9 10/15/10
f 7/16/7 9/17/9 8/18/8
f 10/19/10 11/20/11 12/21/12
f 9/22/9 11/23/11 10/24/10
f 12/25/12 13/26/13 14/27/14
f 11/28/11 13/29/13 12/30/12
f 14/31/14 13/32/13 15/33/15
f 13/34/13 16/35/16 15/36/15
f 17/37/17 16/38/16 13/39/13
f 16/40/16 2/41/2 15/42/15
f 3/43/3 2/44/2 16/45/16
f 18/46/18 19/47/19 15/48/20
f 18/49/21 20/50/22 19/51/23
f 18/52/24 21/53/25 20/54/26
f 22/55/27 18/56/18 15/57/20
f 22/55/27 15/57/20 14/58/28
f 23/59/29 21/60/25 18/61/24
f 23/59/29 18/61/24 22/62/30
f 24/63/31 23/64/29 22/65/30
f 24/63/31 22/65/30 25/66/32
f 25/67/33 22/68/27 14/69/28
f 25/67/33 14/69/28 12/70/34
f 26/71/35 25/72/33 12/73/34
f 26/74/36 24/75/31 25/76/32
f 27/77/37 28/78/38 29/79/39
f 30/80/40 31/81/41 32/82/42
f 33/83/43 34/84/44 30/85/40
f 30/86/40 34/87/44 31/88/41
f 35/89/45 36/90/46 33/91/43
f 33/92/43 36/93/46 34/94/44
f 24/95/47 37/96/48 35/97/45
f 35/98/45 37/99/48 36/100/46
f 23/101/49 38/102/50 24/103/47
f 24/104/47 38/105/50 37/106/48
f 21/107/51 38/108/50 23/109/49
f 21/110/51 39/111/52 38/112/50
f 38/113/50 39/114/52 40/115/53
f 21/116/51 28/117/38 39/118/52
f 39/119/52 28/120/38 27/121/37
f 41/122/54 42/123/55 43/124/56
f 44/125/57 45/126/58 41/127/54
f 41/128/54 45/129/58 42/130/55
f 20/131/59 45/132/58 44/133/57
f 46/134/60 47/135/61 48/136/62
f 49/137/63 50/138/64 46/139/60
f 46/140/60 50/141/64 47/142/61
f 19/143/65 50/144/64 49/145/63
f 51/146/66 20/147/67 21/148/68
f 51/149/69 19/150/70 20/151/71
f 15/152/72 19/153/73 51/154/74
f 52/155/75 51/156/66 21/157/68
f 52/155/75 21/157/68 23/158/76
f 53/159/77 52/160/75 23/161/76
f 53/159/77 23/161/76 24/162/78
f 26/163/79 53/164/77 24/165/78
f 12/166/80 53/167/81 26/168/82
f 52/169/83 53/170/81 12/171/80
f 52/169/83 12/171/80 14/172/84
f 15/173/72 51/174/74 52/175/83
f 15/173/72 52/175/83 14/176/84
