{
    "asset" : {
        "generator" : "Khronos glTF Blender I/O v1.1.46",
        "version" : "2.0"
    },
    "scene" : 0,
    "scenes" : [
        {
            "extras" : {
                "godot_game_tools" : {
                    "rootmotion_hip_bone" : "Hips",
                    "target_object" : {
                        "name" : "Armature",
                        "type" : "Object"
                    }
                },
                "glTF2ExportSettings" : {
                    "export_all_influences" : 0,
                    "export_apply" : 1,
                    "export_extras" : 1,
                    "export_format" : "GLTF_EMBEDDED",
                    "export_morph" : 1,
                    "export_morph_tangent" : 1,
                    "export_selected" : 1,
                    "export_tangents" : 1
                }
            },
            "name" : "Scene",
            "nodes" : [
                2
            ]
        }
    ],
    "nodes" : [
        {
            "mesh" : 0,
            "name" : "Cube.013",
            "rotation" : [
                0,
                -0.31849202513694763,
                0,
                0.9479255080223083
            ],
            "scale" : [
                0.805593729019165,
                1,
                18.891319274902344
            ],
            "translation" : [
                -3.152618408203125,
                0,
                -1
            ]
        },
        {
            "mesh" : 1,
            "name" : "ItmCd.001",
            "scale" : [
                8.519338607788086,
                0.26755815744400024,
                0.26755815744400024
            ],
            "translation" : [
                -0.3187255859375,
                0,
                0
            ]
        },
        {
            "children" : [
                0,
                1
            ],
            "mesh" : 2,
            "name" : "Cube.011",
            "scale" : [
                0.2390090823173523,
                7.610304832458496,
                7.610304832458496
            ],
            "translation" : [
                78.41450500488281,
                16.748737335205078,
                0
            ]
        }
    ],
    "animations" : [
        {
            "channels" : [
                {
                    "sampler" : 0,
                    "target" : {
                        "node" : 1,
                        "path" : "rotation"
                    }
                }
            ],
            "name" : "ItmCd.001Action",
            "samplers" : [
                {
                    "input" : 19,
                    "interpolation" : "LINEAR",
                    "output" : 20
                }
            ]
        },
        {
            "channels" : [
                {
                    "sampler" : 0,
                    "target" : {
                        "node" : 0,
                        "path" : "rotation"
                    }
                }
            ],
            "name" : "Cube.013Action",
            "samplers" : [
                {
                    "input" : 19,
                    "interpolation" : "LINEAR",
                    "output" : 21
                }
            ]
        }
    ],
    "materials" : [
        {
            "alphaMode" : "BLEND",
            "doubleSided" : true,
            "emissiveFactor" : [
                0,
                0,
                0
            ],
            "name" : "cd case",
            "pbrMetallicRoughness" : {
                "baseColorFactor" : [
                    0.023650677874684334,
                    0.023650677874684334,
                    0.023650677874684334,
                    1
                ],
                "metallicFactor" : 0,
                "roughnessFactor" : 0.5
            }
        },
        {
            "doubleSided" : true,
            "emissiveFactor" : [
                0,
                0,
                0
            ],
            "name" : "mat1",
            "pbrMetallicRoughness" : {
                "baseColorTexture" : {
                    "index" : 0,
                    "texCoord" : 0
                },
                "metallicFactor" : 0,
                "roughnessFactor" : 0.8945907354354858
            }
        },
        {
            "doubleSided" : true,
            "emissiveFactor" : [
                0,
                0,
                0
            ],
            "name" : "cd case backing",
            "pbrMetallicRoughness" : {
                "baseColorFactor" : [
                    0.2667611837387085,
                    0.2667611837387085,
                    0.2667611837387085,
                    1
                ],
                "metallicFactor" : 0,
                "roughnessFactor" : 0.5
            }
        },
        {
            "doubleSided" : true,
            "emissiveFactor" : [
                0,
                0,
                0
            ],
            "name" : "cd case side",
            "pbrMetallicRoughness" : {
                "baseColorFactor" : [
                    0.013410519808530807,
                    0.013410519808530807,
                    0.013410519808530807,
                    1
                ],
                "metallicFactor" : 0,
                "roughnessFactor" : 0.5
            }
        }
    ],
    "meshes" : [
        {
            "name" : "Cube.013",
            "primitives" : [
                {
                    "attributes" : {
                        "POSITION" : 0,
                        "NORMAL" : 1,
                        "TANGENT" : 2,
                        "TEXCOORD_0" : 3
                    },
                    "indices" : 4,
                    "material" : 0
                }
            ]
        },
        {
            "name" : "ItmCd.001",
            "primitives" : [
                {
                    "attributes" : {
                        "POSITION" : 5,
                        "NORMAL" : 6,
                        "TANGENT" : 7,
                        "TEXCOORD_0" : 8
                    },
                    "indices" : 9,
                    "material" : 1
                }
            ]
        },
        {
            "name" : "Cube.010",
            "primitives" : [
                {
                    "attributes" : {
                        "POSITION" : 10,
                        "NORMAL" : 11,
                        "TANGENT" : 12,
                        "TEXCOORD_0" : 13
                    },
                    "indices" : 14,
                    "material" : 2
                },
                {
                    "attributes" : {
                        "POSITION" : 15,
                        "NORMAL" : 16,
                        "TANGENT" : 17,
                        "TEXCOORD_0" : 18
                    },
                    "indices" : 14,
                    "material" : 3
                }
            ]
        }
    ],
    "textures" : [
        {
            "source" : 0
        }
    ],
    "images" : [
        {
            "bufferView" : 10,
            "mimeType" : "image/png",
            "name" : "ItmCd_col"
        }
    ],
    "accessors" : [
        {
            "bufferView" : 0,
            "componentType" : 5126,
            "count" : 24,
            "max" : [
                1,
                1,
                2
            ],
            "min" : [
                -1,
                -1,
                0
            ],
            "type" : "VEC3"
        },
        {
            "bufferView" : 1,
            "componentType" : 5126,
            "count" : 24,
            "type" : "VEC3"
        },
        {
            "bufferView" : 2,
            "componentType" : 5126,
            "count" : 24,
            "type" : "VEC4"
        },
        {
            "bufferView" : 3,
            "componentType" : 5126,
            "count" : 24,
            "type" : "VEC2"
        },
        {
            "bufferView" : 4,
            "componentType" : 5123,
            "count" : 36,
            "type" : "SCALAR"
        },
        {
            "bufferView" : 5,
            "componentType" : 5126,
            "count" : 160,
            "max" : [
                0.12172900140285492,
                3.5999999046325684,
                3.5999999046325684
            ],
            "min" : [
                -0.12172900140285492,
                -3.5999999046325684,
                -3.5999999046325684
            ],
            "type" : "VEC3"
        },
        {
            "bufferView" : 6,
            "componentType" : 5126,
            "count" : 160,
            "type" : "VEC3"
        },
        {
            "bufferView" : 7,
            "componentType" : 5126,
            "count" : 160,
            "type" : "VEC4"
        },
        {
            "bufferView" : 8,
            "componentType" : 5126,
            "count" : 160,
            "type" : "VEC2"
        },
        {
            "bufferView" : 9,
            "componentType" : 5123,
            "count" : 384,
            "type" : "SCALAR"
        },
        {
            "bufferView" : 11,
            "componentType" : 5126,
            "count" : 20,
            "max" : [
                1,
                1,
                1
            ],
            "min" : [
                -1,
                -1,
                -1
            ],
            "type" : "VEC3"
        },
        {
            "bufferView" : 12,
            "componentType" : 5126,
            "count" : 20,
            "type" : "VEC3"
        },
        {
            "bufferView" : 13,
            "componentType" : 5126,
            "count" : 20,
            "type" : "VEC4"
        },
        {
            "bufferView" : 14,
            "componentType" : 5126,
            "count" : 20,
            "type" : "VEC2"
        },
        {
            "bufferView" : 15,
            "componentType" : 5123,
            "count" : 30,
            "type" : "SCALAR"
        },
        {
            "bufferView" : 16,
            "componentType" : 5126,
            "count" : 20,
            "max" : [
                1.0000152587890625,
                1,
                -1
            ],
            "min" : [
                -0.9999847412109375,
                -1,
                -1.2023510932922363
            ],
            "type" : "VEC3"
        },
        {
            "bufferView" : 17,
            "componentType" : 5126,
            "count" : 20,
            "type" : "VEC3"
        },
        {
            "bufferView" : 18,
            "componentType" : 5126,
            "count" : 20,
            "type" : "VEC4"
        },
        {
            "bufferView" : 19,
            "componentType" : 5126,
            "count" : 20,
            "type" : "VEC2"
        },
        {
            "bufferView" : 20,
            "componentType" : 5126,
            "count" : 881,
            "max" : [
                36.666666666666664
            ],
            "min" : [
                0
            ],
            "type" : "SCALAR"
        },
        {
            "bufferView" : 21,
            "componentType" : 5126,
            "count" : 881,
            "type" : "VEC4"
        },
        {
            "bufferView" : 22,
            "componentType" : 5126,
            "count" : 881,
            "type" : "VEC4"
        }
    ],
    "bufferViews" : [
        {
            "buffer" : 0,
            "byteLength" : 288,
            "byteOffset" : 0
        },
        {
            "buffer" : 0,
            "byteLength" : 288,
            "byteOffset" : 288
        },
        {
            "buffer" : 0,
            "byteLength" : 384,
            "byteOffset" : 576
        },
        {
            "buffer" : 0,
            "byteLength" : 192,
            "byteOffset" : 960
        },
        {
            "buffer" : 0,
            "byteLength" : 72,
            "byteOffset" : 1152
        },
        {
            "buffer" : 0,
            "byteLength" : 1920,
            "byteOffset" : 1224
        },
        {
            "buffer" : 0,
            "byteLength" : 1920,
            "byteOffset" : 3144
        },
        {
            "buffer" : 0,
            "byteLength" : 2560,
            "byteOffset" : 5064
        },
        {
            "buffer" : 0,
            "byteLength" : 1280,
            "byteOffset" : 7624
        },
        {
            "buffer" : 0,
            "byteLength" : 768,
            "byteOffset" : 8904
        },
        {
            "buffer" : 0,
            "byteLength" : 15213,
            "byteOffset" : 9672
        },
        {
            "buffer" : 0,
            "byteLength" : 240,
            "byteOffset" : 24888
        },
        {
            "buffer" : 0,
            "byteLength" : 240,
            "byteOffset" : 25128
        },
        {
            "buffer" : 0,
            "byteLength" : 320,
            "byteOffset" : 25368
        },
        {
            "buffer" : 0,
            "byteLength" : 160,
            "byteOffset" : 25688
        },
        {
            "buffer" : 0,
            "byteLength" : 60,
            "byteOffset" : 25848
        },
        {
            "buffer" : 0,
            "byteLength" : 240,
            "byteOffset" : 25908
        },
        {
            "buffer" : 0,
            "byteLength" : 240,
            "byteOffset" : 26148
        },
        {
            "buffer" : 0,
            "byteLength" : 320,
            "byteOffset" : 26388
        },
        {
            "buffer" : 0,
            "byteLength" : 160,
            "byteOffset" : 26708
        },
        {
            "buffer" : 0,
            "byteLength" : 3524,
            "byteOffset" : 26868
        },
        {
            "buffer" : 0,
            "byteLength" : 14096,
            "byteOffset" : 30392
        },
        {
            "buffer" : 0,
            "byteLength" : 14096,
            "byteOffset" : 44488
        }
    ],
    "buffers" : [
        {
            "byteLength" : 58584,
            "uri" : "data:application/octet-stream;base64,"
        }
    ]
}
