{
    "asset" : {
        "generator" : "Khronos glTF Blender I/O v1.1.46",
        "version" : "2.0"
    },
    "scene" : 0,
    "scenes" : [
        {
            "name" : "Scene",
            "nodes" : [
                1
            ]
        }
    ],
    "nodes" : [
        {
            "mesh" : 0,
            "name" : "ItmCd.003",
            "scale" : [
                8.519338607788086,
                0.26755815744400024,
                0.26755815744400024
            ],
            "translation" : [
                -0.3187255859375,
                0,
                0
            ]
        },
        {
            "children" : [
                0
            ],
            "mesh" : 1,
            "name" : "Cube.005",
            "scale" : [
                0.2390090823173523,
                7.610304832458496,
                7.610304832458496
            ],
            "translation" : [
                78.41450500488281,
                16.424468994140625,
                0
            ]
        }
    ],
    "animations" : [
        {
            "channels" : [
                {
                    "sampler" : 0,
                    "target" : {
                        "node" : 0,
                        "path" : "rotation"
                    }
                }
            ],
            "name" : "ItmCd.001Action.002",
            "samplers" : [
                {
                    "input" : 14,
                    "interpolation" : "LINEAR",
                    "output" : 15
                }
            ]
        }
    ],
    "materials" : [
        {
            "doubleSided" : true,
            "emissiveFactor" : [
                0,
                0,
                0
            ],
            "name" : "mat1",
            "pbrMetallicRoughness" : {
                "baseColorTexture" : {
                    "index" : 0,
                    "texCoord" : 0
                },
                "metallicFactor" : 0,
                "roughnessFactor" : 0.8945907354354858
            }
        },
        {
            "doubleSided" : true,
            "emissiveFactor" : [
                0,
                0,
                0
            ],
            "name" : "cd case backing",
            "pbrMetallicRoughness" : {
                "baseColorTexture" : {
                    "index" : 1,
                    "texCoord" : 0
                },
                "metallicFactor" : 0,
                "roughnessFactor" : 0.5
            }
        },
        {
            "doubleSided" : true,
            "emissiveFactor" : [
                0,
                0,
                0
            ],
            "name" : "cd case side",
            "pbrMetallicRoughness" : {
                "baseColorFactor" : [
                    0.013410519808530807,
                    0.013410519808530807,
                    0.013410519808530807,
                    1
                ],
                "metallicFactor" : 0,
                "roughnessFactor" : 0.5
            }
        }
    ],
    "meshes" : [
        {
            "name" : "ItmCd.003",
            "primitives" : [
                {
                    "attributes" : {
                        "POSITION" : 0,
                        "NORMAL" : 1,
                        "TANGENT" : 2,
                        "TEXCOORD_0" : 3
                    },
                    "indices" : 4,
                    "material" : 0
                }
            ]
        },
        {
            "name" : "Cube.006",
            "primitives" : [
                {
                    "attributes" : {
                        "POSITION" : 5,
                        "NORMAL" : 6,
                        "TANGENT" : 7,
                        "TEXCOORD_0" : 8
                    },
                    "indices" : 9,
                    "material" : 1
                },
                {
                    "attributes" : {
                        "POSITION" : 10,
                        "NORMAL" : 11,
                        "TANGENT" : 12,
                        "TEXCOORD_0" : 13
                    },
                    "indices" : 9,
                    "material" : 2
                }
            ]
        }
    ],
    "textures" : [
        {
            "source" : 0
        },
        {
            "source" : 1
        }
    ],
    "images" : [
        {
            "bufferView" : 5,
            "mimeType" : "image/png",
            "name" : "ItmCd_col"
        },
        {
            "bufferView" : 11,
            "mimeType" : "image/png",
            "name" : "wev_graphic"
        }
    ],
    "accessors" : [
        {
            "bufferView" : 0,
            "componentType" : 5126,
            "count" : 160,
            "max" : [
                0.12172900140285492,
                3.5999999046325684,
                3.5999999046325684
            ],
            "min" : [
                -0.12172900140285492,
                -3.5999999046325684,
                -3.5999999046325684
            ],
            "type" : "VEC3"
        },
        {
            "bufferView" : 1,
            "componentType" : 5126,
            "count" : 160,
            "type" : "VEC3"
        },
        {
            "bufferView" : 2,
            "componentType" : 5126,
            "count" : 160,
            "type" : "VEC4"
        },
        {
            "bufferView" : 3,
            "componentType" : 5126,
            "count" : 160,
            "type" : "VEC2"
        },
        {
            "bufferView" : 4,
            "componentType" : 5123,
            "count" : 384,
            "type" : "SCALAR"
        },
        {
            "bufferView" : 6,
            "componentType" : 5126,
            "count" : 20,
            "max" : [
                1,
                1,
                1
            ],
            "min" : [
                -1,
                -1,
                -1
            ],
            "type" : "VEC3"
        },
        {
            "bufferView" : 7,
            "componentType" : 5126,
            "count" : 20,
            "type" : "VEC3"
        },
        {
            "bufferView" : 8,
            "componentType" : 5126,
            "count" : 20,
            "type" : "VEC4"
        },
        {
            "bufferView" : 9,
            "componentType" : 5126,
            "count" : 20,
            "type" : "VEC2"
        },
        {
            "bufferView" : 10,
            "componentType" : 5123,
            "count" : 30,
            "type" : "SCALAR"
        },
        {
            "bufferView" : 12,
            "componentType" : 5126,
            "count" : 20,
            "max" : [
                1.0000152587890625,
                1,
                -1
            ],
            "min" : [
                -0.9999847412109375,
                -1,
                -1.2023510932922363
            ],
            "type" : "VEC3"
        },
        {
            "bufferView" : 13,
            "componentType" : 5126,
            "count" : 20,
            "type" : "VEC3"
        },
        {
            "bufferView" : 14,
            "componentType" : 5126,
            "count" : 20,
            "type" : "VEC4"
        },
        {
            "bufferView" : 15,
            "componentType" : 5126,
            "count" : 20,
            "type" : "VEC2"
        },
        {
            "bufferView" : 16,
            "componentType" : 5126,
            "count" : 881,
            "max" : [
                36.666666666666664
            ],
            "min" : [
                0
            ],
            "type" : "SCALAR"
        },
        {
            "bufferView" : 17,
            "componentType" : 5126,
            "count" : 881,
            "type" : "VEC4"
        }
    ],
    "bufferViews" : [
        {
            "buffer" : 0,
            "byteLength" : 1920,
            "byteOffset" : 0
        },
        {
            "buffer" : 0,
            "byteLength" : 1920,
            "byteOffset" : 1920
        },
        {
            "buffer" : 0,
            "byteLength" : 2560,
            "byteOffset" : 3840
        },
        {
            "buffer" : 0,
            "byteLength" : 1280,
            "byteOffset" : 6400
        },
        {
            "buffer" : 0,
            "byteLength" : 768,
            "byteOffset" : 7680
        },
        {
            "buffer" : 0,
            "byteLength" : 15213,
            "byteOffset" : 8448
        },
        {
            "buffer" : 0,
            "byteLength" : 240,
            "byteOffset" : 23664
        },
        {
            "buffer" : 0,
            "byteLength" : 240,
            "byteOffset" : 23904
        },
        {
            "buffer" : 0,
            "byteLength" : 320,
            "byteOffset" : 24144
        },
        {
            "buffer" : 0,
            "byteLength" : 160,
            "byteOffset" : 24464
        },
        {
            "buffer" : 0,
            "byteLength" : 60,
            "byteOffset" : 24624
        },
        {
            "buffer" : 0,
            "byteLength" : 558267,
            "byteOffset" : 24684
        },
        {
            "buffer" : 0,
            "byteLength" : 240,
            "byteOffset" : 582952
        },
        {
            "buffer" : 0,
            "byteLength" : 240,
            "byteOffset" : 583192
        },
        {
            "buffer" : 0,
            "byteLength" : 320,
            "byteOffset" : 583432
        },
        {
            "buffer" : 0,
            "byteLength" : 160,
            "byteOffset" : 583752
        },
        {
            "buffer" : 0,
            "byteLength" : 3524,
            "byteOffset" : 583912
        },
        {
            "buffer" : 0,
            "byteLength" : 14096,
            "byteOffset" : 587436
        }
    ],
    "buffers" : [
        {
            "byteLength" : 601532,
            "uri" : "data:application/octet-stream;base64,"
        }
    ]
}
