# Blender v2.82 (sub 7) OBJ File: 'landingpage.blend'
# www.blender.org
mtllib chalice.mtl
o Icosphere.005_Icosphere.004
v 8.234725 -52.486996 0.634962
v -3.145324 -56.184662 0.634960
v -10.178660 -46.504189 0.634981
v -3.145324 -36.823715 0.634960
v 8.234725 -40.521381 0.634962
v 3.145324 -56.184662 4.927353
v -8.234724 -52.486996 2.004874
v -8.234724 -40.521381 4.927352
v 3.145324 -36.823715 4.927353
v 10.178661 -46.504189 4.927333
v 0.000000 -46.504189 4.649721
v 2.991474 -55.710823 0.258156
v 9.680459 -46.504189 0.258164
v -7.831665 -52.194202 -1.651920
v -7.831665 -40.814171 0.258162
v 2.991474 -37.297554 0.258156
v 10.823135 -50.020782 2.781157
v 10.823135 -42.987595 2.781157
v 0.000000 -57.884289 2.781157
v 6.689060 -55.710880 2.781157
v -10.823134 -50.020782 0.553424
v -6.689060 -55.710880 0.462327
v -6.689060 -37.297497 2.781157
v -10.823134 -42.987595 2.781157
v 6.689060 -37.297497 2.781157
v 0.000000 -35.124088 2.781157
v 7.831665 -52.194202 5.304152
v -2.991474 -55.710823 3.652205
v -9.680458 -46.504189 3.801358
v -2.991474 -37.297554 5.304158
v 7.831665 -40.814171 3.015074
v 1.848761 -52.194183 5.250868
v 5.982858 -46.504189 4.484195
v -4.840215 -50.020767 3.942606
v -4.840215 -42.987606 5.286364
v 1.848761 -40.814190 4.450006
v 0.000000 -56.054604 2.610254
v 9.550408 -46.504196 2.610256
v -0.000001 -36.953789 2.610259
v -9.550407 -46.504196 2.610256
v 0.000000 -46.504192 -9.287238
vt -0.477170 0.068047
vt -0.100032 0.846328
vt -0.970173 0.846328
vt -0.043257 0.068046
vt 0.437732 0.846328
vt -0.585171 0.005444
vt 0.437732 0.068054
vt -0.100032 0.038479
vt 0.975497 0.846328
vt -0.043257 0.068046
vt -0.585171 0.846328
vt 0.437732 0.846328
vt 1.352635 0.068047
vt 1.845638 0.846328
vt 0.975497 0.846328
vt 0.918721 -0.980357
vt 1.635366 -0.370128
vt 0.720448 -0.370125
vt -0.477170 0.564823
vt -0.970164 1.162199
vt -0.100030 1.267508
vt -0.821537 1.414902
vt -1.042622 0.500000
vt -0.302443 1.037762
vt 0.918721 1.980357
vt -0.019730 1.907896
vt 0.720448 1.370125
vt 1.994273 0.500000
vt 1.635366 1.370128
vt 1.352643 0.500000
vt 0.437732 0.500000
vt -0.302443 -0.037762
vt -0.821537 -0.414902
vt -0.019730 -0.907896
vt 2.092827 0.846328
vt 1.635366 0.931154
vt 1.994273 1.624603
vt 2.092827 1.037764
vt 1.460636 1.907905
vt 1.918089 1.624610
vt 1.307861 0.931154
vt -0.019730 1.761252
vt 0.918721 1.624610
vt -0.821537 1.624610
vt 0.437732 1.216287
vt 1.352635 1.624610
vt -0.019730 1.162199
vt -0.821537 0.564823
vt 0.918721 1.624610
vt 1.460636 0.846328
vt 1.635366 1.761250
vt -0.432396 1.761250
vt 0.437732 1.624603
vt 1.460636 0.846328
vt 0.895194 -0.068596
vt 1.845638 0.846328
vt 1.307861 -0.068593
vt -0.970173 0.005444
vt -0.432396 -0.761252
vt 0.895194 -0.068596
vt 0.437732 -0.068593
vt 0.500000 -1.419965
vt 0.500000 2.419965
vt 2.419965 -1.419965
vt 0.500000 -1.419965
vt -1.419965 -1.419965
vt 0.500000 -1.419965
vt -1.419965 -1.419965
vt 0.500000 2.419965
vt 2.419965 0.500000
vt -1.419965 0.500000
vn 0.7748 -0.5629 -0.2876
vn 0.9088 -0.3047 0.2849
vn 0.5707 -0.7702 0.2849
vn -0.0859 -0.8385 -0.5381
vn -0.0946 -0.8896 0.4468
vn -0.6290 -0.7072 0.3228
vn -0.8366 0.1654 -0.5223
vn -0.8658 -0.3821 0.3230
vn -0.8810 0.1973 0.4299
vn -0.2959 0.9109 -0.2876
vn -0.5561 0.7807 0.2849
vn -0.0090 0.9585 0.2849
vn 0.7748 0.5629 -0.2876
vn 0.5996 0.6087 0.5196
vn 0.7642 0.3821 0.5196
vn 0.1167 -0.6002 0.7912
vn 0.4222 -0.2815 0.8617
vn -0.1029 -0.0195 0.9945
vn -0.5908 -0.4399 0.6763
vn -0.3672 -0.4828 0.7950
vn -0.2224 -0.1725 0.9596
vn -0.5350 0.3051 0.7878
vn -0.5708 -0.1964 0.7972
vn -0.0430 -0.0864 0.9953
vn 0.2675 0.4769 0.8373
vn -0.1355 0.4892 0.8616
vn 0.1409 -0.0448 0.9890
vn 0.5387 0.1068 0.8356
vn 0.2192 0.1601 0.9624
vn 0.0006 0.1478 0.9890
vn -0.0010 -0.0018 1.0000
vn 0.2815 0.8663 -0.4125
vn -0.7370 0.5354 -0.4125
vn -0.7186 -0.5146 -0.4676
vn 0.2815 -0.8663 -0.4125
vn 0.9109 0.0000 -0.4125
vn 0.6149 -0.6149 -0.4936
vn 0.6149 0.6149 -0.4936
vn -0.6149 0.6149 -0.4936
vn -0.6149 -0.6149 -0.4936
vn 0.0000 -0.0000 1.0000
usemtl island_grass
s 1
f 1/1/1 17/2/2 20/3/3
f 2/4/4 19/5/5 22/6/6
f 3/7/7 21/8/8 24/9/9
f 4/10/10 23/11/11 26/12/12
f 5/13/13 25/14/14 18/15/15
f 6/16/16 27/17/17 32/18/18
f 7/19/19 28/20/20 34/21/21
f 8/22/22 29/23/23 35/24/24
f 9/25/25 30/26/26 36/27/27
f 10/28/28 31/29/29 33/30/30
f 33/30/30 36/27/27 11/31/31
f 33/30/30 31/29/29 36/27/27
f 31/29/29 9/25/25 36/27/27
f 36/27/27 35/24/24 11/31/31
f 36/27/27 30/26/26 35/24/24
f 30/26/26 8/22/22 35/24/24
f 35/24/24 34/32/21 11/31/31
f 35/24/24 29/23/23 34/32/21
f 29/23/23 7/33/19 34/32/21
f 34/32/21 32/18/18 11/31/31
f 34/32/21 28/34/20 32/18/18
f 28/34/20 6/16/16 32/18/18
f 32/18/18 33/30/30 11/31/31
f 32/18/18 27/17/17 33/30/30
f 27/17/17 10/28/28 33/30/30
f 18/35/15 31/36/29 10/37/28
f 18/38/15 25/39/14 31/29/29
f 25/14/14 9/40/25 31/41/29
f 26/12/12 30/42/26 9/43/25
f 26/12/12 23/11/11 30/42/26
f 23/11/11 8/44/22 30/42/26
f 24/9/9 29/45/23 8/46/22
f 24/9/9 21/8/8 29/45/23
f 21/8/8 7/19/19 29/45/23
f 22/6/6 28/47/20 7/48/19
f 22/6/6 19/5/5 28/47/20
f 19/5/5 6/49/16 28/47/20
f 20/50/3 27/51/17 6/49/16
f 20/3/3 17/2/2 27/52/17
f 17/2/2 10/53/28 27/52/17
f 25/54/14 26/12/12 9/43/25
f 25/54/14 16/55/32 26/12/12
f 23/56/11 24/9/9 8/46/22
f 23/56/11 15/57/33 24/9/9
f 21/8/8 22/58/6 7/19/19
f 21/8/8 14/59/34 22/58/6
f 19/5/5 20/50/3 6/49/16
f 19/5/5 12/60/35 20/50/3
f 17/2/2 18/15/15 10/53/28
f 17/2/2 13/61/36 18/15/15
usemtl grass_bottom
s off
f 37/62/37 41/63/37 38/64/37
f 38/64/38 41/63/38 39/65/38
f 39/66/39 41/63/39 40/67/39
f 40/68/40 41/63/40 37/62/40
f 37/69/41 38/70/41 39/65/41 40/71/41
