{
    "asset" : {
        "generator" : "Khronos glTF Blender I/O v1.1.46",
        "version" : "2.0"
    },
    "scene" : 0,
    "scenes" : [
        {
            "name" : "Scene",
            "nodes" : [
                0
            ]
        }
    ],
    "nodes" : [
        {
            "mesh" : 0,
            "name" : "FaceScan",
            "rotation" : [
                0,
                0.25595882534980774,
                -0.9666876792907715,
                -2.1871962019304192e-08
            ],
            "scale" : [
                6.486137390136719,
                6.486137390136719,
                6.486137390136719
            ],
            "translation" : [
                0,
                90.47824096679688,
                67.86656188964844
            ]
        }
    ],
    "materials" : [
        {
            "doubleSided" : true,
            "emissiveFactor" : [
                0,
                0,
                0
            ],
            "name" : "Material.004",
            "pbrMetallicRoughness" : {
                "baseColorFactor" : [
                    0.800000011920929,
                    0.800000011920929,
                    0.800000011920929,
                    1
                ],
                "metallicFactor" : 0,
                "roughnessFactor" : 0.5
            }
        }
    ],
    "meshes" : [
        {
            "name" : "FaceScan",
            "primitives" : [
                {
                    "attributes" : {
                        "POSITION" : 0,
                        "NORMAL" : 1
                    },
                    "indices" : 2,
                    "material" : 0
                }
            ]
        }
    ],
    "accessors" : [
        {
            "bufferView" : 0,
            "componentType" : 5126,
            "count" : 55296,
            "max" : [
                2.326457977294922,
                2.2127699851989746,
                -0.3673110008239746
            ],
            "min" : [
                -2.332758903503418,
                -0.7882170081138611,
                -5.992551803588867
            ],
            "type" : "VEC3"
        },
        {
            "bufferView" : 1,
            "componentType" : 5126,
            "count" : 55296,
            "type" : "VEC3"
        },
        {
            "bufferView" : 2,
            "componentType" : 5123,
            "count" : 82944,
            "type" : "SCALAR"
        }
    ],
    "bufferViews" : [
        {
            "buffer" : 0,
            "byteLength" : 663552,
            "byteOffset" : 0
        },
        {
            "buffer" : 0,
            "byteLength" : 663552,
            "byteOffset" : 663552
        },
        {
            "buffer" : 0,
            "byteLength" : 165888,
            "byteOffset" : 1327104
        }
    ],
    "buffers" : [
        {
            "byteLength" : 1492992,
            "uri" : "data:application/octet-stream;base64,"
        }
    ]
}
