{
    "asset" : {
        "generator" : "Khronos glTF Blender I/O v1.1.46",
        "version" : "2.0"
    },
    "scene" : 0,
    "scenes" : [
        {
            "name" : "Scene",
            "nodes" : [
                0
            ]
        }
    ],
    "nodes" : [
        {
            "mesh" : 0,
            "name" : "Text",
            "rotation" : [
                0,
                0.9520331621170044,
                -0.30599477887153625,
                -1.1458874382697104e-07
            ],
            "scale" : [
                0.38746458292007446,
                0.38746458292007446,
                0.38746458292007446
            ],
            "translation" : [
                0.0023372285068035126,
                -3.5818395614624023,
                11.584884643554688
            ]
        }
    ],
    "materials" : [
        {
            "doubleSided" : true,
            "emissiveFactor" : [
                1,
                1,
                1
            ],
            "name" : "Material.005",
            "pbrMetallicRoughness" : {
                "baseColorFactor" : [
                    1,
                    1,
                    1,
                    1
                ],
                "metallicFactor" : 0,
                "roughnessFactor" : 0.5
            }
        }
    ],
    "meshes" : [
        {
            "name" : "CUText",
            "primitives" : [
                {
                    "attributes" : {
                        "POSITION" : 0,
                        "NORMAL" : 1
                    },
                    "indices" : 2,
                    "material" : 0
                }
            ]
        }
    ],
    "accessors" : [
        {
            "bufferView" : 0,
            "componentType" : 5126,
            "count" : 427,
            "max" : [
                5.21875,
                0,
                0.1875
            ],
            "min" : [
                -5.34375,
                0,
                -0.625
            ],
            "type" : "VEC3"
        },
        {
            "bufferView" : 1,
            "componentType" : 5126,
            "count" : 427,
            "type" : "VEC3"
        },
        {
            "bufferView" : 2,
            "componentType" : 5123,
            "count" : 798,
            "type" : "SCALAR"
        }
    ],
    "bufferViews" : [
        {
            "buffer" : 0,
            "byteLength" : 5124,
            "byteOffset" : 0
        },
        {
            "buffer" : 0,
            "byteLength" : 5124,
            "byteOffset" : 5124
        },
        {
            "buffer" : 0,
            "byteLength" : 1596,
            "byteOffset" : 10248
        }
    ],
    "buffers" : [
        {
            "byteLength" : 11844,
            "uri" : "data:application/octet-stream;base64,"
        }
    ]
}
