{
    "asset" : {
        "generator" : "Khronos glTF Blender I/O v1.1.46",
        "version" : "2.0"
    },
    "scene" : 0,
    "scenes" : [
        {
            "name" : "Scene",
            "nodes" : [
                0
            ]
        }
    ],
    "nodes" : [
        {
            "mesh" : 0,
            "name" : "Text.002",
            "rotation" : [
                0,
                0.7071067690849304,
                -0.7071067690849304,
                -3.0908619663705394e-08
            ],
            "translation" : [
                0.6963660717010498,
                25.00752830505371,
                64.00175476074219
            ]
        }
    ],
    "materials" : [
        {
            "doubleSided" : true,
            "emissiveFactor" : [
                1,
                1,
                1
            ],
            "name" : "Material.005",
            "pbrMetallicRoughness" : {
                "baseColorFactor" : [
                    1,
                    1,
                    1,
                    1
                ],
                "metallicFactor" : 0,
                "roughnessFactor" : 0.5
            }
        }
    ],
    "meshes" : [
        {
            "name" : "Text.001",
            "primitives" : [
                {
                    "attributes" : {
                        "POSITION" : 0,
                        "NORMAL" : 1,
                        "TANGENT" : 2,
                        "TEXCOORD_0" : 3
                    },
                    "indices" : 4,
                    "material" : 0
                }
            ]
        }
    ],
    "accessors" : [
        {
            "bufferView" : 0,
            "componentType" : 5126,
            "count" : 5764,
            "max" : [
                6.625,
                0.009999997913837433,
                4
            ],
            "min" : [
                -6.75,
                -0.009999997913837433,
                -0.625
            ],
            "type" : "VEC3"
        },
        {
            "bufferView" : 1,
            "componentType" : 5126,
            "count" : 5764,
            "type" : "VEC3"
        },
        {
            "bufferView" : 2,
            "componentType" : 5126,
            "count" : 5764,
            "type" : "VEC4"
        },
        {
            "bufferView" : 3,
            "componentType" : 5126,
            "count" : 5764,
            "type" : "VEC2"
        },
        {
            "bufferView" : 4,
            "componentType" : 5123,
            "count" : 13308,
            "type" : "SCALAR"
        }
    ],
    "bufferViews" : [
        {
            "buffer" : 0,
            "byteLength" : 69168,
            "byteOffset" : 0
        },
        {
            "buffer" : 0,
            "byteLength" : 69168,
            "byteOffset" : 69168
        },
        {
            "buffer" : 0,
            "byteLength" : 92224,
            "byteOffset" : 138336
        },
        {
            "buffer" : 0,
            "byteLength" : 46112,
            "byteOffset" : 230560
        },
        {
            "buffer" : 0,
            "byteLength" : 26616,
            "byteOffset" : 276672
        }
    ],
    "buffers" : [
        {
            "byteLength" : 303288,
            "uri" : "data:application/octet-stream;base64,"
        }
    ]
}
