{
    "asset" : {
        "generator" : "Khronos glTF Blender I/O v1.1.46",
        "version" : "2.0"
    },
    "scene" : 0,
    "scenes" : [
        {
            "name" : "Scene",
            "nodes" : [
                0
            ]
        }
    ],
    "nodes" : [
        {
            "mesh" : 0,
            "name" : "Text.001",
            "rotation" : [
                0.7071067690849304,
                0,
                0,
                0.7071067690849304
            ],
            "scale" : [
                4.569858551025391,
                2.7301552295684814,
                4.569858551025391
            ],
            "translation" : [
                79.56396484375,
                16.953571319580078,
                0
            ]
        }
    ],
    "animations" : [
        {
            "channels" : [
                {
                    "sampler" : 0,
                    "target" : {
                        "node" : 0,
                        "path" : "rotation"
                    }
                }
            ],
            "name" : "Text.001Action.003",
            "samplers" : [
                {
                    "input" : 16,
                    "interpolation" : "LINEAR",
                    "output" : 17
                }
            ]
        }
    ],
    "materials" : [
        {
            "doubleSided" : true,
            "emissiveFactor" : [
                0,
                0,
                0
            ],
            "name" : "greeeen",
            "pbrMetallicRoughness" : {
                "baseColorFactor" : [
                    0.004724108148366213,
                    0.3931143581867218,
                    0,
                    1
                ],
                "metallicFactor" : 0,
                "roughnessFactor" : 0.6474654078483582
            }
        },
        {
            "doubleSided" : true,
            "emissiveFactor" : [
                0,
                0,
                0
            ],
            "name" : "bloo",
            "pbrMetallicRoughness" : {
                "baseColorFactor" : [
                    0.0002300000051036477,
                    0,
                    0.44797900319099426,
                    1
                ],
                "metallicFactor" : 0,
                "roughnessFactor" : 0.5
            }
        },
        {
            "doubleSided" : true,
            "emissiveFactor" : [
                0,
                0,
                0
            ],
            "name" : "redd",
            "pbrMetallicRoughness" : {
                "baseColorFactor" : [
                    0.800000011920929,
                    0,
                    0.0012639999622479081,
                    1
                ],
                "metallicFactor" : 0,
                "roughnessFactor" : 0.5
            }
        },
        {
            "doubleSided" : true,
            "emissiveFactor" : [
                0,
                0,
                0
            ],
            "name" : "yelo",
            "pbrMetallicRoughness" : {
                "baseColorFactor" : [
                    0.45753100514411926,
                    0.27452999353408813,
                    0,
                    1
                ],
                "metallicFactor" : 0,
                "roughnessFactor" : 0.5
            }
        }
    ],
    "meshes" : [
        {
            "name" : "Text.023",
            "primitives" : [
                {
                    "attributes" : {
                        "POSITION" : 0,
                        "NORMAL" : 1,
                        "TEXCOORD_0" : 2
                    },
                    "indices" : 3,
                    "material" : 0
                },
                {
                    "attributes" : {
                        "POSITION" : 4,
                        "NORMAL" : 5,
                        "TEXCOORD_0" : 6
                    },
                    "indices" : 7,
                    "material" : 1
                },
                {
                    "attributes" : {
                        "POSITION" : 8,
                        "NORMAL" : 9,
                        "TEXCOORD_0" : 10
                    },
                    "indices" : 11,
                    "material" : 2
                },
                {
                    "attributes" : {
                        "POSITION" : 12,
                        "NORMAL" : 13,
                        "TEXCOORD_0" : 14
                    },
                    "indices" : 15,
                    "material" : 3
                }
            ]
        }
    ],
    "accessors" : [
        {
            "bufferView" : 0,
            "componentType" : 5126,
            "count" : 1654,
            "max" : [
                1.4447553157806396,
                4.76195764541626,
                0.4356284439563751
            ],
            "min" : [
                -1.4447553157806396,
                -4.761967182159424,
                -0.47640907764434814
            ],
            "type" : "VEC3"
        },
        {
            "bufferView" : 1,
            "componentType" : 5126,
            "count" : 1654,
            "type" : "VEC3"
        },
        {
            "bufferView" : 2,
            "componentType" : 5126,
            "count" : 1654,
            "type" : "VEC2"
        },
        {
            "bufferView" : 3,
            "componentType" : 5123,
            "count" : 2748,
            "type" : "SCALAR"
        },
        {
            "bufferView" : 4,
            "componentType" : 5126,
            "count" : 142,
            "max" : [
                1.4447553157806396,
                4.76195764541626,
                0.43447139859199524
            ],
            "min" : [
                -1.4447553157806396,
                -4.761967182159424,
                -0.47640860080718994
            ],
            "type" : "VEC3"
        },
        {
            "bufferView" : 5,
            "componentType" : 5126,
            "count" : 142,
            "type" : "VEC3"
        },
        {
            "bufferView" : 6,
            "componentType" : 5126,
            "count" : 142,
            "type" : "VEC2"
        },
        {
            "bufferView" : 7,
            "componentType" : 5123,
            "count" : 216,
            "type" : "SCALAR"
        },
        {
            "bufferView" : 8,
            "componentType" : 5126,
            "count" : 466,
            "max" : [
                1.4447553157806396,
                4.76195764541626,
                0.4356288015842438
            ],
            "min" : [
                -1.4447553157806396,
                -4.761967182159424,
                -0.47640860080718994
            ],
            "type" : "VEC3"
        },
        {
            "bufferView" : 9,
            "componentType" : 5126,
            "count" : 466,
            "type" : "VEC3"
        },
        {
            "bufferView" : 10,
            "componentType" : 5126,
            "count" : 466,
            "type" : "VEC2"
        },
        {
            "bufferView" : 11,
            "componentType" : 5123,
            "count" : 1302,
            "type" : "SCALAR"
        },
        {
            "bufferView" : 12,
            "componentType" : 5126,
            "count" : 32,
            "max" : [
                1.2283203601837158,
                4.76195764541626,
                0.13065196573734283
            ],
            "min" : [
                -1.2283203601837158,
                -4.761967182159424,
                -0.16275082528591156
            ],
            "type" : "VEC3"
        },
        {
            "bufferView" : 13,
            "componentType" : 5126,
            "count" : 32,
            "type" : "VEC3"
        },
        {
            "bufferView" : 14,
            "componentType" : 5126,
            "count" : 32,
            "type" : "VEC2"
        },
        {
            "bufferView" : 15,
            "componentType" : 5123,
            "count" : 48,
            "type" : "SCALAR"
        },
        {
            "bufferView" : 16,
            "componentType" : 5126,
            "count" : 250,
            "max" : [
                10.416666666666666
            ],
            "min" : [
                0.041666666666666664
            ],
            "type" : "SCALAR"
        },
        {
            "bufferView" : 17,
            "componentType" : 5126,
            "count" : 250,
            "type" : "VEC4"
        }
    ],
    "bufferViews" : [
        {
            "buffer" : 0,
            "byteLength" : 19848,
            "byteOffset" : 0
        },
        {
            "buffer" : 0,
            "byteLength" : 19848,
            "byteOffset" : 19848
        },
        {
            "buffer" : 0,
            "byteLength" : 13232,
            "byteOffset" : 39696
        },
        {
            "buffer" : 0,
            "byteLength" : 5496,
            "byteOffset" : 52928
        },
        {
            "buffer" : 0,
            "byteLength" : 1704,
            "byteOffset" : 58424
        },
        {
            "buffer" : 0,
            "byteLength" : 1704,
            "byteOffset" : 60128
        },
        {
            "buffer" : 0,
            "byteLength" : 1136,
            "byteOffset" : 61832
        },
        {
            "buffer" : 0,
            "byteLength" : 432,
            "byteOffset" : 62968
        },
        {
            "buffer" : 0,
            "byteLength" : 5592,
            "byteOffset" : 63400
        },
        {
            "buffer" : 0,
            "byteLength" : 5592,
            "byteOffset" : 68992
        },
        {
            "buffer" : 0,
            "byteLength" : 3728,
            "byteOffset" : 74584
        },
        {
            "buffer" : 0,
            "byteLength" : 2604,
            "byteOffset" : 78312
        },
        {
            "buffer" : 0,
            "byteLength" : 384,
            "byteOffset" : 80916
        },
        {
            "buffer" : 0,
            "byteLength" : 384,
            "byteOffset" : 81300
        },
        {
            "buffer" : 0,
            "byteLength" : 256,
            "byteOffset" : 81684
        },
        {
            "buffer" : 0,
            "byteLength" : 96,
            "byteOffset" : 81940
        },
        {
            "buffer" : 0,
            "byteLength" : 1000,
            "byteOffset" : 82036
        },
        {
            "buffer" : 0,
            "byteLength" : 4000,
            "byteOffset" : 83036
        }
    ],
    "buffers" : [
        {
            "byteLength" : 87036,
            "uri" : "data:application/octet-stream;base64,"
        }
    ]
}
