{
    "asset" : {
        "generator" : "Khronos glTF Blender I/O v1.1.46",
        "version" : "2.0"
    },
    "scene" : 0,
    "scenes" : [
        {
            "name" : "Scene",
            "nodes" : [
                0,
                1,
                2,
                3
            ]
        }
    ],
    "nodes" : [
        {
            "mesh" : 0,
            "name" : "LLL.007",
            "rotation" : [
                0.7071067690849304,
                0,
                0,
                0.7071067690849304
            ],
            "scale" : [
                1.1777082681655884,
                0.15301798284053802,
                0.34587404131889343
            ],
            "translation" : [
                -44.27693176269531,
                -1.9043142795562744,
                0
            ]
        },
        {
            "mesh" : 1,
            "name" : "Plane.004",
            "rotation" : [
                -0.5000001192092896,
                0.49999988079071045,
                -0.49999988079071045,
                -0.5000001192092896
            ],
            "scale" : [
                3.458434581756592,
                4.070600509643555,
                4.070600509643555
            ],
            "translation" : [
                -59.745906829833984,
                4.152149200439453,
                0
            ]
        },
        {
            "mesh" : 2,
            "name" : "Plane.016",
            "rotation" : [
                0.5,
                0.4999999701976776,
                -0.5000000596046448,
                0.4999999403953552
            ],
            "scale" : [
                4.063898086547852,
                4.063898086547852,
                4.063898086547852
            ],
            "translation" : [
                -69.14932250976562,
                22.962779998779297,
                0.5747275352478027
            ]
        },
        {
            "mesh" : 3,
            "name" : "Text.011",
            "rotation" : [
                0.7071067690849304,
                0,
                0,
                0.7071067690849304
            ],
            "scale" : [
                4.56299352645874,
                2.4875030517578125,
                4.56299352645874
            ],
            "translation" : [
                -69.22644805908203,
                22.51077651977539,
                0
            ]
        }
    ],
    "animations" : [
        {
            "channels" : [
                {
                    "sampler" : 0,
                    "target" : {
                        "node" : 3,
                        "path" : "rotation"
                    }
                }
            ],
            "name" : "Text.020Action",
            "samplers" : [
                {
                    "input" : 35,
                    "interpolation" : "LINEAR",
                    "output" : 36
                }
            ]
        }
    ],
    "materials" : [
        {
            "doubleSided" : true,
            "emissiveFactor" : [
                0,
                0,
                0
            ],
            "name" : "grass bottom",
            "pbrMetallicRoughness" : {
                "baseColorTexture" : {
                    "index" : 0,
                    "texCoord" : 0
                },
                "metallicFactor" : 0,
                "roughnessFactor" : 0.5
            }
        },
        {
            "doubleSided" : true,
            "emissiveFactor" : [
                0,
                0,
                0
            ],
            "name" : "checkerboard",
            "pbrMetallicRoughness" : {
                "baseColorTexture" : {
                    "index" : 1,
                    "texCoord" : 0
                },
                "metallicFactor" : 0,
                "roughnessFactor" : 0.5
            }
        },
        {
            "doubleSided" : true,
            "emissiveFactor" : [
                0,
                0,
                0
            ],
            "name" : "doorwya",
            "pbrMetallicRoughness" : {
                "baseColorFactor" : [
                    0,
                    0,
                    0,
                    1
                ],
                "metallicFactor" : 0,
                "roughnessFactor" : 0.5
            }
        },
        {
            "doubleSided" : true,
            "emissiveFactor" : [
                0,
                0,
                0
            ],
            "name" : "doorway arch",
            "pbrMetallicRoughness" : {
                "baseColorFactor" : [
                    1,
                    1,
                    1,
                    1
                ],
                "metallicFactor" : 0,
                "roughnessFactor" : 0.5
            }
        },
        {
            "doubleSided" : true,
            "emissiveFactor" : [
                0.44797784090042114,
                0.44797784090042114,
                0.44797784090042114
            ],
            "name" : "Material",
            "pbrMetallicRoughness" : {
                "baseColorFactor" : [
                    0.800000011920929,
                    0.800000011920929,
                    0.800000011920929,
                    1
                ],
                "metallicFactor" : 1,
                "roughnessFactor" : 0.17714285850524902
            }
        },
        {
            "doubleSided" : true,
            "emissiveFactor" : [
                0,
                0,
                0
            ],
            "name" : "bloo",
            "pbrMetallicRoughness" : {
                "baseColorFactor" : [
                    0.0002300000051036477,
                    0,
                    0.44797900319099426,
                    1
                ],
                "metallicFactor" : 0,
                "roughnessFactor" : 0.5
            }
        },
        {
            "doubleSided" : true,
            "emissiveFactor" : [
                0,
                0,
                0
            ],
            "name" : "yelo",
            "pbrMetallicRoughness" : {
                "baseColorFactor" : [
                    0.45753100514411926,
                    0.27452999353408813,
                    0,
                    1
                ],
                "metallicFactor" : 0,
                "roughnessFactor" : 0.5
            }
        },
        {
            "doubleSided" : true,
            "emissiveFactor" : [
                0,
                0,
                0
            ],
            "name" : "greeeen",
            "pbrMetallicRoughness" : {
                "baseColorFactor" : [
                    0.004724108148366213,
                    0.3931143581867218,
                    0,
                    1
                ],
                "metallicFactor" : 0,
                "roughnessFactor" : 0.6474654078483582
            }
        },
        {
            "doubleSided" : true,
            "emissiveFactor" : [
                0,
                0,
                0
            ],
            "name" : "redd",
            "pbrMetallicRoughness" : {
                "baseColorFactor" : [
                    0.800000011920929,
                    0,
                    0.0012639999622479081,
                    1
                ],
                "metallicFactor" : 0,
                "roughnessFactor" : 0.5
            }
        }
    ],
    "meshes" : [
        {
            "name" : "LLL.005",
            "primitives" : [
                {
                    "attributes" : {
                        "POSITION" : 0,
                        "NORMAL" : 1,
                        "TEXCOORD_0" : 2
                    },
                    "indices" : 3,
                    "material" : 0
                },
                {
                    "attributes" : {
                        "POSITION" : 4,
                        "NORMAL" : 5,
                        "TEXCOORD_0" : 6
                    },
                    "indices" : 7,
                    "material" : 1
                }
            ]
        },
        {
            "name" : "Plane.005",
            "primitives" : [
                {
                    "attributes" : {
                        "POSITION" : 8,
                        "NORMAL" : 9,
                        "TEXCOORD_0" : 10
                    },
                    "indices" : 11,
                    "material" : 2
                },
                {
                    "attributes" : {
                        "POSITION" : 12,
                        "NORMAL" : 13,
                        "TEXCOORD_0" : 14
                    },
                    "indices" : 15,
                    "material" : 3
                }
            ]
        },
        {
            "name" : "Plane.013",
            "primitives" : [
                {
                    "attributes" : {
                        "POSITION" : 16,
                        "NORMAL" : 17
                    },
                    "indices" : 18,
                    "material" : 4
                }
            ]
        },
        {
            "name" : "Text.004",
            "primitives" : [
                {
                    "attributes" : {
                        "POSITION" : 19,
                        "NORMAL" : 20,
                        "TEXCOORD_0" : 21
                    },
                    "indices" : 22,
                    "material" : 5
                },
                {
                    "attributes" : {
                        "POSITION" : 23,
                        "NORMAL" : 24,
                        "TEXCOORD_0" : 25
                    },
                    "indices" : 26,
                    "material" : 6
                },
                {
                    "attributes" : {
                        "POSITION" : 27,
                        "NORMAL" : 28,
                        "TEXCOORD_0" : 29
                    },
                    "indices" : 30,
                    "material" : 7
                },
                {
                    "attributes" : {
                        "POSITION" : 31,
                        "NORMAL" : 32,
                        "TEXCOORD_0" : 33
                    },
                    "indices" : 34,
                    "material" : 8
                }
            ]
        }
    ],
    "textures" : [
        {
            "source" : 0
        },
        {
            "source" : 1
        }
    ],
    "images" : [
        {
            "bufferView" : 4,
            "mimeType" : "image/png",
            "name" : "gray_smooth_stone"
        },
        {
            "bufferView" : 9,
            "mimeType" : "image/png",
            "name" : "checkerboard"
        }
    ],
    "accessors" : [
        {
            "bufferView" : 0,
            "componentType" : 5126,
            "count" : 16,
            "max" : [
                20.612058639526367,
                20.60851287841797,
                19.762664794921875
            ],
            "min" : [
                -20.604366302490234,
                -20.60027313232422,
                -4.797332763671875
            ],
            "type" : "VEC3"
        },
        {
            "bufferView" : 1,
            "componentType" : 5126,
            "count" : 16,
            "type" : "VEC3"
        },
        {
            "bufferView" : 2,
            "componentType" : 5126,
            "count" : 16,
            "type" : "VEC2"
        },
        {
            "bufferView" : 3,
            "componentType" : 5123,
            "count" : 18,
            "type" : "SCALAR"
        },
        {
            "bufferView" : 5,
            "componentType" : 5126,
            "count" : 20,
            "max" : [
                20.67562484741211,
                30.631942749023438,
                -4.748645782470703
            ],
            "min" : [
                -20.65713119506836,
                -30.631942749023438,
                -6.262960433959961
            ],
            "type" : "VEC3"
        },
        {
            "bufferView" : 6,
            "componentType" : 5126,
            "count" : 20,
            "type" : "VEC3"
        },
        {
            "bufferView" : 7,
            "componentType" : 5126,
            "count" : 20,
            "type" : "VEC2"
        },
        {
            "bufferView" : 8,
            "componentType" : 5123,
            "count" : 30,
            "type" : "SCALAR"
        },
        {
            "bufferView" : 10,
            "componentType" : 5126,
            "count" : 16,
            "max" : [
                1,
                0,
                1
            ],
            "min" : [
                -1,
                -2.1020776230784577e-08,
                -1.9775774478912354
            ],
            "type" : "VEC3"
        },
        {
            "bufferView" : 11,
            "componentType" : 5126,
            "count" : 16,
            "type" : "VEC3"
        },
        {
            "bufferView" : 12,
            "componentType" : 5126,
            "count" : 16,
            "type" : "VEC2"
        },
        {
            "bufferView" : 13,
            "componentType" : 5123,
            "count" : 24,
            "type" : "SCALAR"
        },
        {
            "bufferView" : 14,
            "componentType" : 5126,
            "count" : 70,
            "max" : [
                1.2177729606628418,
                0.31375083327293396,
                1.0708686113357544
            ],
            "min" : [
                -1.2177729606628418,
                0.01331708300858736,
                -2.1849756240844727
            ],
            "type" : "VEC3"
        },
        {
            "bufferView" : 15,
            "componentType" : 5126,
            "count" : 70,
            "type" : "VEC3"
        },
        {
            "bufferView" : 16,
            "componentType" : 5126,
            "count" : 70,
            "type" : "VEC2"
        },
        {
            "bufferView" : 17,
            "componentType" : 5123,
            "count" : 108,
            "type" : "SCALAR"
        },
        {
            "bufferView" : 18,
            "componentType" : 5126,
            "count" : 1226,
            "max" : [
                1.7295067310333252,
                0.5869401097297668,
                1.9942479133605957
            ],
            "min" : [
                -2.0217082500457764,
                0.23559221625328064,
                -1.7957167625427246
            ],
            "type" : "VEC3"
        },
        {
            "bufferView" : 19,
            "componentType" : 5126,
            "count" : 1226,
            "type" : "VEC3"
        },
        {
            "bufferView" : 20,
            "componentType" : 5123,
            "count" : 2244,
            "type" : "SCALAR"
        },
        {
            "bufferView" : 21,
            "componentType" : 5126,
            "count" : 537,
            "max" : [
                1.7485524415969849,
                6.062954425811768,
                0.45823419094085693
            ],
            "min" : [
                -1.7485541105270386,
                -6.062956809997559,
                -0.4526459276676178
            ],
            "type" : "VEC3"
        },
        {
            "bufferView" : 22,
            "componentType" : 5126,
            "count" : 537,
            "type" : "VEC3"
        },
        {
            "bufferView" : 23,
            "componentType" : 5126,
            "count" : 537,
            "type" : "VEC2"
        },
        {
            "bufferView" : 24,
            "componentType" : 5123,
            "count" : 1209,
            "type" : "SCALAR"
        },
        {
            "bufferView" : 25,
            "componentType" : 5126,
            "count" : 76,
            "max" : [
                1.7485524415969849,
                6.062954425811768,
                0.15441469848155975
            ],
            "min" : [
                -1.7485541105270386,
                -6.062953948974609,
                -0.1441970020532608
            ],
            "type" : "VEC3"
        },
        {
            "bufferView" : 26,
            "componentType" : 5126,
            "count" : 76,
            "type" : "VEC3"
        },
        {
            "bufferView" : 27,
            "componentType" : 5126,
            "count" : 76,
            "type" : "VEC2"
        },
        {
            "bufferView" : 28,
            "componentType" : 5123,
            "count" : 120,
            "type" : "SCALAR"
        },
        {
            "bufferView" : 29,
            "componentType" : 5126,
            "count" : 1565,
            "max" : [
                1.7485533952713013,
                6.062954425811768,
                0.45823419094085693
            ],
            "min" : [
                -1.7485541105270386,
                -6.062954902648926,
                -0.4526459276676178
            ],
            "type" : "VEC3"
        },
        {
            "bufferView" : 30,
            "componentType" : 5126,
            "count" : 1565,
            "type" : "VEC3"
        },
        {
            "bufferView" : 31,
            "componentType" : 5126,
            "count" : 1565,
            "type" : "VEC2"
        },
        {
            "bufferView" : 32,
            "componentType" : 5123,
            "count" : 3207,
            "type" : "SCALAR"
        },
        {
            "bufferView" : 33,
            "componentType" : 5126,
            "count" : 754,
            "max" : [
                1.7485524415969849,
                6.062954425811768,
                0.45823419094085693
            ],
            "min" : [
                -1.7485541105270386,
                -6.062954902648926,
                -0.4526459276676178
            ],
            "type" : "VEC3"
        },
        {
            "bufferView" : 34,
            "componentType" : 5126,
            "count" : 754,
            "type" : "VEC3"
        },
        {
            "bufferView" : 35,
            "componentType" : 5126,
            "count" : 754,
            "type" : "VEC2"
        },
        {
            "bufferView" : 36,
            "componentType" : 5123,
            "count" : 2136,
            "type" : "SCALAR"
        },
        {
            "bufferView" : 37,
            "componentType" : 5126,
            "count" : 250,
            "max" : [
                10.416666666666666
            ],
            "min" : [
                0.041666666666666664
            ],
            "type" : "SCALAR"
        },
        {
            "bufferView" : 38,
            "componentType" : 5126,
            "count" : 250,
            "type" : "VEC4"
        }
    ],
    "bufferViews" : [
        {
            "buffer" : 0,
            "byteLength" : 192,
            "byteOffset" : 0
        },
        {
            "buffer" : 0,
            "byteLength" : 192,
            "byteOffset" : 192
        },
        {
            "buffer" : 0,
            "byteLength" : 128,
            "byteOffset" : 384
        },
        {
            "buffer" : 0,
            "byteLength" : 36,
            "byteOffset" : 512
        },
        {
            "buffer" : 0,
            "byteLength" : 5416,
            "byteOffset" : 548
        },
        {
            "buffer" : 0,
            "byteLength" : 240,
            "byteOffset" : 5964
        },
        {
            "buffer" : 0,
            "byteLength" : 240,
            "byteOffset" : 6204
        },
        {
            "buffer" : 0,
            "byteLength" : 160,
            "byteOffset" : 6444
        },
        {
            "buffer" : 0,
            "byteLength" : 60,
            "byteOffset" : 6604
        },
        {
            "buffer" : 0,
            "byteLength" : 5758,
            "byteOffset" : 6664
        },
        {
            "buffer" : 0,
            "byteLength" : 192,
            "byteOffset" : 12424
        },
        {
            "buffer" : 0,
            "byteLength" : 192,
            "byteOffset" : 12616
        },
        {
            "buffer" : 0,
            "byteLength" : 128,
            "byteOffset" : 12808
        },
        {
            "buffer" : 0,
            "byteLength" : 48,
            "byteOffset" : 12936
        },
        {
            "buffer" : 0,
            "byteLength" : 840,
            "byteOffset" : 12984
        },
        {
            "buffer" : 0,
            "byteLength" : 840,
            "byteOffset" : 13824
        },
        {
            "buffer" : 0,
            "byteLength" : 560,
            "byteOffset" : 14664
        },
        {
            "buffer" : 0,
            "byteLength" : 216,
            "byteOffset" : 15224
        },
        {
            "buffer" : 0,
            "byteLength" : 14712,
            "byteOffset" : 15440
        },
        {
            "buffer" : 0,
            "byteLength" : 14712,
            "byteOffset" : 30152
        },
        {
            "buffer" : 0,
            "byteLength" : 4488,
            "byteOffset" : 44864
        },
        {
            "buffer" : 0,
            "byteLength" : 6444,
            "byteOffset" : 49352
        },
        {
            "buffer" : 0,
            "byteLength" : 6444,
            "byteOffset" : 55796
        },
        {
            "buffer" : 0,
            "byteLength" : 4296,
            "byteOffset" : 62240
        },
        {
            "buffer" : 0,
            "byteLength" : 2418,
            "byteOffset" : 66536
        },
        {
            "buffer" : 0,
            "byteLength" : 912,
            "byteOffset" : 68956
        },
        {
            "buffer" : 0,
            "byteLength" : 912,
            "byteOffset" : 69868
        },
        {
            "buffer" : 0,
            "byteLength" : 608,
            "byteOffset" : 70780
        },
        {
            "buffer" : 0,
            "byteLength" : 240,
            "byteOffset" : 71388
        },
        {
            "buffer" : 0,
            "byteLength" : 18780,
            "byteOffset" : 71628
        },
        {
            "buffer" : 0,
            "byteLength" : 18780,
            "byteOffset" : 90408
        },
        {
            "buffer" : 0,
            "byteLength" : 12520,
            "byteOffset" : 109188
        },
        {
            "buffer" : 0,
            "byteLength" : 6414,
            "byteOffset" : 121708
        },
        {
            "buffer" : 0,
            "byteLength" : 9048,
            "byteOffset" : 128124
        },
        {
            "buffer" : 0,
            "byteLength" : 9048,
            "byteOffset" : 137172
        },
        {
            "buffer" : 0,
            "byteLength" : 6032,
            "byteOffset" : 146220
        },
        {
            "buffer" : 0,
            "byteLength" : 4272,
            "byteOffset" : 152252
        },
        {
            "buffer" : 0,
            "byteLength" : 1000,
            "byteOffset" : 156524
        },
        {
            "buffer" : 0,
            "byteLength" : 4000,
            "byteOffset" : 157524
        }
    ],
    "buffers" : [
        {
            "byteLength" : 161524,
            "uri" : "data:application/octet-stream;base64,"
        }
    ]
}
