{
    "asset" : {
        "generator" : "Khronos glTF Blender I/O v1.1.46",
        "version" : "2.0"
    },
    "scene" : 0,
    "scenes" : [
        {
            "name" : "Scene",
            "nodes" : [
                0,
                1,
                2
            ]
        }
    ],
    "nodes" : [
        {
            "mesh" : 0,
            "name" : "LLL.007",
            "rotation" : [
                0.7071067690849304,
                0,
                0,
                0.7071067690849304
            ],
            "scale" : [
                1.1777082681655884,
                0.15301798284053802,
                0.34587404131889343
            ],
            "translation" : [
                -44.27693176269531,
                -1.9043142795562744,
                0
            ]
        },
        {
            "mesh" : 1,
            "name" : "Plane.004",
            "rotation" : [
                -0.5000001192092896,
                0.49999988079071045,
                -0.49999988079071045,
                -0.5000001192092896
            ],
            "scale" : [
                3.458434581756592,
                4.070600509643555,
                4.070600509643555
            ],
            "translation" : [
                -68.46177673339844,
                4.152149200439453,
                0
            ]
        },
        {
            "mesh" : 2,
            "name" : "LLL.009",
            "rotation" : [
                0.7071067690849304,
                0,
                0,
                0.7071067690849304
            ],
            "scale" : [
                1.1777082681655884,
                0.15301798284053802,
                0.34587404131889343
            ],
            "translation" : [
                -44.27693176269531,
                -1.9043142795562744,
                0
            ]
        }
    ],
    "materials" : [
        {
            "doubleSided" : true,
            "emissiveFactor" : [
                0,
                0,
                0
            ],
            "name" : "grass bottom",
            "pbrMetallicRoughness" : {
                "baseColorTexture" : {
                    "index" : 0,
                    "texCoord" : 0
                },
                "metallicFactor" : 0,
                "roughnessFactor" : 0.5
            }
        },
        {
            "doubleSided" : true,
            "emissiveFactor" : [
                0,
                0,
                0
            ],
            "name" : "checkerboard",
            "pbrMetallicRoughness" : {
                "baseColorTexture" : {
                    "index" : 1,
                    "texCoord" : 0
                },
                "metallicFactor" : 0,
                "roughnessFactor" : 0.5
            }
        },
        {
            "doubleSided" : true,
            "emissiveFactor" : [
                0,
                0,
                0
            ],
            "name" : "doorwya",
            "pbrMetallicRoughness" : {
                "baseColorFactor" : [
                    0,
                    0,
                    0,
                    1
                ],
                "metallicFactor" : 0,
                "roughnessFactor" : 0.5
            }
        },
        {
            "doubleSided" : true,
            "emissiveFactor" : [
                0,
                0,
                0
            ],
            "name" : "doorway arch",
            "pbrMetallicRoughness" : {
                "baseColorFactor" : [
                    1,
                    1,
                    1,
                    1
                ],
                "metallicFactor" : 0,
                "roughnessFactor" : 0.5
            }
        },
        {
            "doubleSided" : true,
            "emissiveFactor" : [
                0,
                0,
                0
            ],
            "name" : "runway",
            "pbrMetallicRoughness" : {
                "metallicFactor" : 0,
                "roughnessFactor" : 0.5
            }
        }
    ],
    "meshes" : [
        {
            "name" : "LLL.005",
            "primitives" : [
                {
                    "attributes" : {
                        "POSITION" : 0,
                        "NORMAL" : 1,
                        "TANGENT" : 2,
                        "TEXCOORD_0" : 3
                    },
                    "indices" : 4,
                    "material" : 0
                },
                {
                    "attributes" : {
                        "POSITION" : 5,
                        "NORMAL" : 6,
                        "TANGENT" : 7,
                        "TEXCOORD_0" : 8
                    },
                    "indices" : 9,
                    "material" : 1
                }
            ]
        },
        {
            "name" : "Plane.005",
            "primitives" : [
                {
                    "attributes" : {
                        "POSITION" : 10,
                        "NORMAL" : 11,
                        "TANGENT" : 12,
                        "TEXCOORD_0" : 13
                    },
                    "indices" : 14,
                    "material" : 2
                },
                {
                    "attributes" : {
                        "POSITION" : 15,
                        "NORMAL" : 16,
                        "TANGENT" : 17,
                        "TEXCOORD_0" : 18
                    },
                    "indices" : 19,
                    "material" : 3
                }
            ]
        },
        {
            "name" : "LLL.006",
            "primitives" : [
                {
                    "attributes" : {
                        "POSITION" : 20,
                        "NORMAL" : 21,
                        "TANGENT" : 22,
                        "TEXCOORD_0" : 23
                    },
                    "indices" : 24,
                    "material" : 4
                }
            ]
        }
    ],
    "textures" : [
        {
            "source" : 0
        },
        {
            "source" : 1
        }
    ],
    "images" : [
        {
            "bufferView" : 5,
            "mimeType" : "image/png",
            "name" : "gray_smooth_stone"
        },
        {
            "bufferView" : 11,
            "mimeType" : "image/png",
            "name" : "checkerboard"
        }
    ],
    "accessors" : [
        {
            "bufferView" : 0,
            "componentType" : 5126,
            "count" : 16,
            "max" : [
                20.612058639526367,
                20.60851287841797,
                19.762664794921875
            ],
            "min" : [
                -20.604366302490234,
                -20.60027313232422,
                -4.797332763671875
            ],
            "type" : "VEC3"
        },
        {
            "bufferView" : 1,
            "componentType" : 5126,
            "count" : 16,
            "type" : "VEC3"
        },
        {
            "bufferView" : 2,
            "componentType" : 5126,
            "count" : 16,
            "type" : "VEC4"
        },
        {
            "bufferView" : 3,
            "componentType" : 5126,
            "count" : 16,
            "type" : "VEC2"
        },
        {
            "bufferView" : 4,
            "componentType" : 5123,
            "count" : 18,
            "type" : "SCALAR"
        },
        {
            "bufferView" : 6,
            "componentType" : 5126,
            "count" : 20,
            "max" : [
                20.67562484741211,
                30.631942749023438,
                -4.748645782470703
            ],
            "min" : [
                -20.65713119506836,
                -30.631942749023438,
                -6.262960433959961
            ],
            "type" : "VEC3"
        },
        {
            "bufferView" : 7,
            "componentType" : 5126,
            "count" : 20,
            "type" : "VEC3"
        },
        {
            "bufferView" : 8,
            "componentType" : 5126,
            "count" : 20,
            "type" : "VEC4"
        },
        {
            "bufferView" : 9,
            "componentType" : 5126,
            "count" : 20,
            "type" : "VEC2"
        },
        {
            "bufferView" : 10,
            "componentType" : 5123,
            "count" : 30,
            "type" : "SCALAR"
        },
        {
            "bufferView" : 12,
            "componentType" : 5126,
            "count" : 16,
            "max" : [
                1,
                0,
                1
            ],
            "min" : [
                -1,
                -2.1020776230784577e-08,
                -1.9775774478912354
            ],
            "type" : "VEC3"
        },
        {
            "bufferView" : 13,
            "componentType" : 5126,
            "count" : 16,
            "type" : "VEC3"
        },
        {
            "bufferView" : 14,
            "componentType" : 5126,
            "count" : 16,
            "type" : "VEC4"
        },
        {
            "bufferView" : 15,
            "componentType" : 5126,
            "count" : 16,
            "type" : "VEC2"
        },
        {
            "bufferView" : 16,
            "componentType" : 5123,
            "count" : 24,
            "type" : "SCALAR"
        },
        {
            "bufferView" : 17,
            "componentType" : 5126,
            "count" : 70,
            "max" : [
                1.2177729606628418,
                0.31375083327293396,
                1.0708686113357544
            ],
            "min" : [
                -1.2177729606628418,
                0.01331708300858736,
                -2.1849756240844727
            ],
            "type" : "VEC3"
        },
        {
            "bufferView" : 18,
            "componentType" : 5126,
            "count" : 70,
            "type" : "VEC3"
        },
        {
            "bufferView" : 19,
            "componentType" : 5126,
            "count" : 70,
            "type" : "VEC4"
        },
        {
            "bufferView" : 20,
            "componentType" : 5126,
            "count" : 70,
            "type" : "VEC2"
        },
        {
            "bufferView" : 21,
            "componentType" : 5123,
            "count" : 108,
            "type" : "SCALAR"
        },
        {
            "bufferView" : 22,
            "componentType" : 5126,
            "count" : 4,
            "max" : [
                20.657133102416992,
                30.63194465637207,
                -4.748646259307861
            ],
            "min" : [
                -20.657129287719727,
                -30.63194465637207,
                -4.7486467361450195
            ],
            "type" : "VEC3"
        },
        {
            "bufferView" : 23,
            "componentType" : 5126,
            "count" : 4,
            "type" : "VEC3"
        },
        {
            "bufferView" : 24,
            "componentType" : 5126,
            "count" : 4,
            "type" : "VEC4"
        },
        {
            "bufferView" : 25,
            "componentType" : 5126,
            "count" : 4,
            "type" : "VEC2"
        },
        {
            "bufferView" : 26,
            "componentType" : 5123,
            "count" : 6,
            "type" : "SCALAR"
        }
    ],
    "bufferViews" : [
        {
            "buffer" : 0,
            "byteLength" : 192,
            "byteOffset" : 0
        },
        {
            "buffer" : 0,
            "byteLength" : 192,
            "byteOffset" : 192
        },
        {
            "buffer" : 0,
            "byteLength" : 256,
            "byteOffset" : 384
        },
        {
            "buffer" : 0,
            "byteLength" : 128,
            "byteOffset" : 640
        },
        {
            "buffer" : 0,
            "byteLength" : 36,
            "byteOffset" : 768
        },
        {
            "buffer" : 0,
            "byteLength" : 5416,
            "byteOffset" : 804
        },
        {
            "buffer" : 0,
            "byteLength" : 240,
            "byteOffset" : 6220
        },
        {
            "buffer" : 0,
            "byteLength" : 240,
            "byteOffset" : 6460
        },
        {
            "buffer" : 0,
            "byteLength" : 320,
            "byteOffset" : 6700
        },
        {
            "buffer" : 0,
            "byteLength" : 160,
            "byteOffset" : 7020
        },
        {
            "buffer" : 0,
            "byteLength" : 60,
            "byteOffset" : 7180
        },
        {
            "buffer" : 0,
            "byteLength" : 5758,
            "byteOffset" : 7240
        },
        {
            "buffer" : 0,
            "byteLength" : 192,
            "byteOffset" : 13000
        },
        {
            "buffer" : 0,
            "byteLength" : 192,
            "byteOffset" : 13192
        },
        {
            "buffer" : 0,
            "byteLength" : 256,
            "byteOffset" : 13384
        },
        {
            "buffer" : 0,
            "byteLength" : 128,
            "byteOffset" : 13640
        },
        {
            "buffer" : 0,
            "byteLength" : 48,
            "byteOffset" : 13768
        },
        {
            "buffer" : 0,
            "byteLength" : 840,
            "byteOffset" : 13816
        },
        {
            "buffer" : 0,
            "byteLength" : 840,
            "byteOffset" : 14656
        },
        {
            "buffer" : 0,
            "byteLength" : 1120,
            "byteOffset" : 15496
        },
        {
            "buffer" : 0,
            "byteLength" : 560,
            "byteOffset" : 16616
        },
        {
            "buffer" : 0,
            "byteLength" : 216,
            "byteOffset" : 17176
        },
        {
            "buffer" : 0,
            "byteLength" : 48,
            "byteOffset" : 17392
        },
        {
            "buffer" : 0,
            "byteLength" : 48,
            "byteOffset" : 17440
        },
        {
            "buffer" : 0,
            "byteLength" : 64,
            "byteOffset" : 17488
        },
        {
            "buffer" : 0,
            "byteLength" : 32,
            "byteOffset" : 17552
        },
        {
            "buffer" : 0,
            "byteLength" : 12,
            "byteOffset" : 17584
        }
    ],
    "buffers" : [
        {
            "byteLength" : 17596,
            "uri" : "data:application/octet-stream;base64,"
        }
    ]
}
