# Blender v2.82 (sub 7) OBJ File: 'landingpage.blend'
# www.blender.org
mtllib runway.mtl
o Plane.004_Plane.005
v -59.213615 3.458435 0.081549
v -59.213608 -3.458435 0.081549
v -59.213615 3.458435 8.947308
v -59.213608 -3.458435 8.947308
v -59.213615 2.838728 10.607637
v -59.213612 -2.838728 10.607637
v -59.213612 1.493445 11.827963
v -59.213612 -1.493445 11.827963
v -59.213612 0.334000 12.202077
v -59.213612 -0.334000 12.202077
v -59.267822 4.211588 -0.206929
v -59.267818 -4.211588 -0.206929
v -59.267822 4.211588 9.082741
v -59.267818 -4.211588 9.082741
v -59.267822 3.456926 11.104647
v -59.267818 -3.456926 11.104647
v -59.267822 1.818677 12.590727
v -59.267818 -1.818677 12.590727
v -59.267822 0.406736 13.046312
v -59.267822 -0.406736 13.046312
v -60.490768 4.211587 9.082741
v -60.490768 4.211587 -0.206929
v -60.490765 -4.211589 -0.206929
v -60.490765 -4.211589 9.082741
v -60.490765 -3.456927 11.104647
v -60.490768 3.456925 11.104647
v -60.490765 -1.818678 12.590727
v -60.490768 1.818676 12.590727
v -60.490765 -0.406737 13.046312
v -60.490768 0.406736 13.046312
v -35.069881 0.005828 -8.739706
v -10.753769 3.152212 -0.245042
v -59.291618 3.152094 -0.245042
v -59.294697 -3.153473 -0.245042
v -10.756977 -3.153355 -0.245042
v -59.356838 -4.687238 0.261880
v -59.356838 4.687238 0.261880
v -10.700691 -4.687238 0.261881
v -10.700691 4.687238 0.261881
v -59.286667 -4.687238 -0.261882
v -59.286671 4.687238 -0.261881
v -59.286667 -4.687238 0.261880
v -10.678909 -4.687238 -0.261881
v -10.678913 4.687238 -0.261881
v -10.678909 -4.687238 0.261881
v -10.678913 4.687238 0.261881
v -59.286671 4.687238 0.261880
vt 0.000000 0.000000
vt 1.000000 0.000000
vt 1.000000 1.000000
vt 0.000000 1.000000
vt 1.000000 1.000000
vt 0.000000 1.000000
vt 1.000000 1.000000
vt 0.000000 1.000000
vt 1.000000 1.000000
vt 0.000000 1.000000
vt 0.000000 0.000000
vt 0.000000 1.000000
vt 1.000000 1.000000
vt 1.000000 0.000000
vt 0.000000 1.000000
vt 1.000000 1.000000
vt 0.000000 1.000000
vt 1.000000 1.000000
vt 0.000000 1.000000
vt 1.000000 1.000000
vt 0.000000 0.000000
vt 1.000000 0.000000
vt 1.000000 1.000000
vt 0.000000 1.000000
vt 1.000000 1.000000
vt 0.000000 1.000000
vt 1.000000 1.000000
vt 0.000000 1.000000
vt 1.000000 1.000000
vt 0.000000 1.000000
vt 0.468800 0.466800
vt 0.966800 0.966800
vt 0.966800 0.000000
vt 0.000000 0.966800
vt 0.000000 0.000000
vt 0.966800 0.966800
vt 0.000000 0.000000
vt 0.000000 0.966800
vt 0.966800 0.000000
vt 2.934361 -0.984808
vt -1.934361 -0.984808
vt -1.934361 1.984808
vt 2.934361 1.984808
vt -2.647101 -0.479772
vt -2.647101 1.479772
vt 3.647101 1.479772
vt 3.647101 -0.479772
vt 3.647101 -0.479772
vt 3.647101 1.479772
vt 3.647101 -0.479772
vt 3.647101 1.479772
vt -2.647101 1.479772
vt -2.647101 -0.479772
vt -2.647101 -0.479772
vt -2.647101 1.479772
vn -1.0000 -0.0000 0.0000
vn 1.0000 0.0000 0.0000
vn 0.0000 -0.6719 0.7407
vn 0.0000 -0.9369 0.3497
vn 0.0000 0.0000 1.0000
vn -0.0000 1.0000 0.0000
vn 0.0000 0.3071 0.9517
vn 0.0000 0.0000 -1.0000
vn -0.0000 0.6719 0.7407
vn -0.0000 0.9369 0.3497
vn 0.0000 -0.3071 0.9517
vn 0.0000 -1.0000 0.0000
vn -0.0002 0.0006 -1.0000
vn 0.8121 0.5679 0.1338
vn 0.8118 -0.5684 0.1338
vn -0.8117 0.5684 0.1343
vn -0.8119 -0.5682 0.1342
usemtl doorwya
s off
f 1/1/1 2/2/1 4/3/1 3/4/1
f 3/4/1 4/3/1 6/5/1 5/6/1
f 5/6/1 6/5/1 8/7/1 7/8/1
f 7/8/1 8/7/1 10/9/1 9/10/1
usemtl doorway_arch
f 11/11/2 13/12/2 14/13/2 12/14/2
f 13/12/2 15/15/2 16/16/2 14/13/2
f 15/15/2 17/17/2 18/18/2 16/16/2
f 17/17/2 19/19/2 20/20/2 18/18/2
f 22/21/1 23/22/1 24/23/1 21/24/1
f 21/24/1 24/23/1 25/25/1 26/26/1
f 26/26/1 25/25/1 27/27/1 28/28/1
f 28/28/1 27/27/1 29/29/1 30/30/1
f 16/16/3 18/18/3 27/27/3 25/25/3
f 14/13/4 16/16/4 25/25/4 24/23/4
f 20/20/5 19/19/5 30/30/5 29/29/5
f 13/12/6 11/11/6 22/21/6 21/24/6
f 19/19/7 17/17/7 28/28/7 30/30/7
f 11/11/8 12/14/8 23/22/8 22/21/8
f 17/17/9 15/15/9 26/26/9 28/28/9
f 15/15/10 13/12/10 21/24/10 26/26/10
f 18/18/11 20/20/11 29/29/11 27/27/11
f 12/14/12 14/13/12 24/23/12 23/22/12
usemtl grass_bottom
s 1
f 31/31/13 32/32/14 35/33/15
f 31/31/13 33/34/16 32/32/14
f 31/31/13 34/35/17 33/34/16
f 31/31/13 35/33/15 34/35/17
f 35/36/15 33/37/16 34/38/17
f 35/36/15 32/39/14 33/37/16
usemtl checkerboard
s off
f 39/40/5 37/41/5 36/42/5 38/43/5
f 40/44/1 42/45/1 47/46/1 41/47/1
f 43/48/12 45/49/12 42/45/12 40/44/12
f 44/50/2 46/51/2 45/52/2 43/53/2
f 41/54/6 47/55/6 46/51/6 44/50/6
