{
    "asset" : {
        "generator" : "Khronos glTF Blender I/O v1.1.46",
        "version" : "2.0"
    },
    "scene" : 0,
    "scenes" : [
        {
            "name" : "Scene",
            "nodes" : [
                0
            ]
        }
    ],
    "nodes" : [
        {
            "mesh" : 0,
            "name" : "Cube.001_Cube.003",
            "rotation" : [
                0.2685234546661377,
                -0.47670978307724,
                0.7594656944274902,
                0.3519301414489746
            ],
            "scale" : [
                0.7562758326530457,
                0.7562758326530457,
                0.7562757730484009
            ],
            "translation" : [
                -3.814697265625e-06,
                42.14729690551758,
                0
            ]
        }
    ],
    "animations" : [
        {
            "channels" : [
                {
                    "sampler" : 0,
                    "target" : {
                        "node" : 0,
                        "path" : "rotation"
                    }
                }
            ],
            "name" : "Cube.001_Cube.003Action",
            "samplers" : [
                {
                    "input" : 8,
                    "interpolation" : "LINEAR",
                    "output" : 9
                }
            ]
        }
    ],
    "materials" : [
        {
            "doubleSided" : true,
            "emissiveFactor" : [
                0,
                0,
                0
            ],
            "name" : "twitch",
            "pbrMetallicRoughness" : {
                "baseColorFactor" : [
                    0.26748400926589966,
                    0.14552900195121765,
                    1,
                    1
                ],
                "metallicFactor" : 0,
                "roughnessFactor" : 0.5
            }
        },
        {
            "doubleSided" : true,
            "emissiveFactor" : [
                0,
                0,
                0
            ],
            "name" : "white.001",
            "pbrMetallicRoughness" : {
                "baseColorFactor" : [
                    1,
                    1,
                    1,
                    1
                ],
                "metallicFactor" : 0,
                "roughnessFactor" : 0.5
            }
        }
    ],
    "meshes" : [
        {
            "name" : "Cube.001_Cube.003",
            "primitives" : [
                {
                    "attributes" : {
                        "POSITION" : 0,
                        "NORMAL" : 1,
                        "TEXCOORD_0" : 2
                    },
                    "indices" : 3,
                    "material" : 0
                },
                {
                    "attributes" : {
                        "POSITION" : 4,
                        "NORMAL" : 5,
                        "TEXCOORD_0" : 6
                    },
                    "indices" : 7,
                    "material" : 1
                }
            ]
        }
    ],
    "accessors" : [
        {
            "bufferView" : 0,
            "componentType" : 5126,
            "count" : 2846,
            "max" : [
                25.062314987182617,
                102.52362060546875,
                36.71124267578125
            ],
            "min" : [
                -17.761980056762695,
                -96.4383316040039,
                -53.29198455810547
            ],
            "type" : "VEC3"
        },
        {
            "bufferView" : 1,
            "componentType" : 5126,
            "count" : 2846,
            "type" : "VEC3"
        },
        {
            "bufferView" : 2,
            "componentType" : 5126,
            "count" : 2846,
            "type" : "VEC2"
        },
        {
            "bufferView" : 3,
            "componentType" : 5123,
            "count" : 8352,
            "type" : "SCALAR"
        },
        {
            "bufferView" : 4,
            "componentType" : 5126,
            "count" : 16,
            "max" : [
                4.705554008483887,
                73.27213287353516,
                26.13189697265625
            ],
            "min" : [
                -5.006411552429199,
                -70.415283203125,
                -26.105262756347656
            ],
            "type" : "VEC3"
        },
        {
            "bufferView" : 5,
            "componentType" : 5126,
            "count" : 16,
            "type" : "VEC3"
        },
        {
            "bufferView" : 6,
            "componentType" : 5126,
            "count" : 16,
            "type" : "VEC2"
        },
        {
            "bufferView" : 7,
            "componentType" : 5123,
            "count" : 24,
            "type" : "SCALAR"
        },
        {
            "bufferView" : 8,
            "componentType" : 5126,
            "count" : 501,
            "max" : [
                20.875
            ],
            "min" : [
                0.041666666666666664
            ],
            "type" : "SCALAR"
        },
        {
            "bufferView" : 9,
            "componentType" : 5126,
            "count" : 501,
            "type" : "VEC4"
        }
    ],
    "bufferViews" : [
        {
            "buffer" : 0,
            "byteLength" : 34152,
            "byteOffset" : 0
        },
        {
            "buffer" : 0,
            "byteLength" : 34152,
            "byteOffset" : 34152
        },
        {
            "buffer" : 0,
            "byteLength" : 22768,
            "byteOffset" : 68304
        },
        {
            "buffer" : 0,
            "byteLength" : 16704,
            "byteOffset" : 91072
        },
        {
            "buffer" : 0,
            "byteLength" : 192,
            "byteOffset" : 107776
        },
        {
            "buffer" : 0,
            "byteLength" : 192,
            "byteOffset" : 107968
        },
        {
            "buffer" : 0,
            "byteLength" : 128,
            "byteOffset" : 108160
        },
        {
            "buffer" : 0,
            "byteLength" : 48,
            "byteOffset" : 108288
        },
        {
            "buffer" : 0,
            "byteLength" : 2004,
            "byteOffset" : 108336
        },
        {
            "buffer" : 0,
            "byteLength" : 8016,
            "byteOffset" : 110340
        }
    ],
    "buffers" : [
        {
            "byteLength" : 118356,
            "uri" : "data:application/octet-stream;base64,"
        }
    ]
}
