{
    "asset" : {
        "generator" : "Khronos glTF Blender I/O v1.1.46",
        "version" : "2.0"
    },
    "scene" : 0,
    "scenes" : [
        {
            "name" : "Scene",
            "nodes" : [
                0,
                1
            ]
        }
    ],
    "nodes" : [
        {
            "mesh" : 0,
            "name" : "Icosphere.005",
            "scale" : [
                8.552664756774902,
                3.606647491455078,
                8.552664756774902
            ],
            "translation" : [
                0,
                0.11454200744628906,
                66.18372344970703
            ]
        },
        {
            "mesh" : 1,
            "name" : "Cone.002",
            "rotation" : [
                1,
                0,
                0,
                -1.6292068494294654e-07
            ],
            "scale" : [
                7.961383819580078,
                4.958978652954102,
                7.961383819580078
            ],
            "translation" : [
                0,
                -4.531405925750732,
                66.18372344970703
            ]
        }
    ],
    "materials" : [
        {
            "doubleSided" : true,
            "emissiveFactor" : [
                0,
                0,
                0
            ],
            "name" : "island grass",
            "pbrMetallicRoughness" : {
                "baseColorTexture" : {
                    "index" : 0,
                    "texCoord" : 0
                },
                "metallicFactor" : 0,
                "roughnessFactor" : 0.5
            }
        },
        {
            "doubleSided" : true,
            "emissiveFactor" : [
                0,
                0,
                0
            ],
            "name" : "grass bottom",
            "pbrMetallicRoughness" : {
                "baseColorTexture" : {
                    "index" : 1,
                    "texCoord" : 0
                },
                "metallicFactor" : 0,
                "roughnessFactor" : 0.5
            }
        }
    ],
    "meshes" : [
        {
            "name" : "Icosphere.004",
            "primitives" : [
                {
                    "attributes" : {
                        "POSITION" : 0,
                        "NORMAL" : 1,
                        "TANGENT" : 2,
                        "TEXCOORD_0" : 3
                    },
                    "indices" : 4,
                    "material" : 0
                }
            ]
        },
        {
            "name" : "Cone.002",
            "primitives" : [
                {
                    "attributes" : {
                        "POSITION" : 5,
                        "NORMAL" : 6,
                        "TANGENT" : 7,
                        "TEXCOORD_0" : 8
                    },
                    "indices" : 9,
                    "material" : 1
                }
            ]
        }
    ],
    "textures" : [
        {
            "source" : 0
        },
        {
            "source" : 1
        }
    ],
    "images" : [
        {
            "bufferView" : 5,
            "mimeType" : "image/png",
            "name" : "white_smooth_texture"
        },
        {
            "bufferView" : 11,
            "mimeType" : "image/png",
            "name" : "gray_smooth_stone"
        }
    ],
    "accessors" : [
        {
            "bufferView" : 0,
            "componentType" : 5126,
            "count" : 65,
            "max" : [
                0.9510578513145447,
                0.5257376432418823,
                0.9999999403953552
            ],
            "min" : [
                -0.9510578513145447,
                -0.9237551093101501,
                -0.9999999403953552
            ],
            "type" : "VEC3"
        },
        {
            "bufferView" : 1,
            "componentType" : 5126,
            "count" : 65,
            "type" : "VEC3"
        },
        {
            "bufferView" : 2,
            "componentType" : 5126,
            "count" : 65,
            "type" : "VEC4"
        },
        {
            "bufferView" : 3,
            "componentType" : 5126,
            "count" : 65,
            "type" : "VEC2"
        },
        {
            "bufferView" : 4,
            "componentType" : 5123,
            "count" : 150,
            "type" : "SCALAR"
        },
        {
            "bufferView" : 6,
            "componentType" : 5126,
            "count" : 16,
            "max" : [
                1,
                1,
                1
            ],
            "min" : [
                -1,
                -1,
                -1
            ],
            "type" : "VEC3"
        },
        {
            "bufferView" : 7,
            "componentType" : 5126,
            "count" : 16,
            "type" : "VEC3"
        },
        {
            "bufferView" : 8,
            "componentType" : 5126,
            "count" : 16,
            "type" : "VEC4"
        },
        {
            "bufferView" : 9,
            "componentType" : 5126,
            "count" : 16,
            "type" : "VEC2"
        },
        {
            "bufferView" : 10,
            "componentType" : 5123,
            "count" : 18,
            "type" : "SCALAR"
        }
    ],
    "bufferViews" : [
        {
            "buffer" : 0,
            "byteLength" : 780,
            "byteOffset" : 0
        },
        {
            "buffer" : 0,
            "byteLength" : 780,
            "byteOffset" : 780
        },
        {
            "buffer" : 0,
            "byteLength" : 1040,
            "byteOffset" : 1560
        },
        {
            "buffer" : 0,
            "byteLength" : 520,
            "byteOffset" : 2600
        },
        {
            "buffer" : 0,
            "byteLength" : 300,
            "byteOffset" : 3120
        },
        {
            "buffer" : 0,
            "byteLength" : 5398,
            "byteOffset" : 3420
        },
        {
            "buffer" : 0,
            "byteLength" : 192,
            "byteOffset" : 8820
        },
        {
            "buffer" : 0,
            "byteLength" : 192,
            "byteOffset" : 9012
        },
        {
            "buffer" : 0,
            "byteLength" : 256,
            "byteOffset" : 9204
        },
        {
            "buffer" : 0,
            "byteLength" : 128,
            "byteOffset" : 9460
        },
        {
            "buffer" : 0,
            "byteLength" : 36,
            "byteOffset" : 9588
        },
        {
            "buffer" : 0,
            "byteLength" : 5416,
            "byteOffset" : 9624
        }
    ],
    "buffers" : [
        {
            "byteLength" : 15040,
            "uri" : "data:application/octet-stream;base64,"
        }
    ]
}
