{
    "asset" : {
        "generator" : "Khronos glTF Blender I/O v1.1.46",
        "version" : "2.0"
    },
    "extensionsUsed" : [
        "KHR_materials_unlit"
    ],
    "scene" : 0,
    "scenes" : [
        {
            "name" : "Scene",
            "nodes" : [
                0,
                1,
                2
            ]
        }
    ],
    "nodes" : [
        {
            "mesh" : 0,
            "name" : "Sphere.004",
            "rotation" : [
                0.07908227294683456,
                0,
                0,
                0.9968680739402771
            ],
            "scale" : [
                0.562960147857666,
                1.6988434791564941,
                0.38758811354637146
            ],
            "translation" : [
                -0.00040459781303070486,
                18.411375045776367,
                43.09130096435547
            ]
        },
        {
            "mesh" : 1,
            "name" : "Icosphere.005",
            "scale" : [
                11.380101203918457,
                4.79897403717041,
                11.380101203918457
            ],
            "translation" : [
                0,
                2.7811567783355713,
                46.504188537597656
            ]
        },
        {
            "mesh" : 2,
            "name" : "Cone.002",
            "rotation" : [
                1,
                0,
                0,
                -1.6292068494294654e-07
            ],
            "scale" : [
                9.550406455993652,
                5.948747158050537,
                9.550406455993652
            ],
            "translation" : [
                0,
                -2.883216142654419,
                46.504188537597656
            ]
        }
    ],
    "animations" : [
        {
            "channels" : [
                {
                    "sampler" : 0,
                    "target" : {
                        "node" : 0,
                        "path" : "rotation"
                    }
                }
            ],
            "name" : "Sphere.004Action",
            "samplers" : [
                {
                    "input" : 25,
                    "interpolation" : "LINEAR",
                    "output" : 26
                }
            ]
        }
    ],
    "materials" : [
        {
            "doubleSided" : true,
            "extensions" : {
                "KHR_materials_unlit" : {}
            },
            "name" : "star eyes white",
            "pbrMetallicRoughness" : {
                "baseColorFactor" : [
                    0.800000011920929,
                    0.800000011920929,
                    0.800000011920929,
                    1
                ]
            }
        },
        {
            "doubleSided" : true,
            "emissiveFactor" : [
                0,
                0,
                0
            ],
            "name" : "star eyes",
            "pbrMetallicRoughness" : {
                "baseColorFactor" : [
                    0,
                    0,
                    0,
                    1
                ],
                "metallicFactor" : 0,
                "roughnessFactor" : 0.5
            }
        },
        {
            "doubleSided" : true,
            "extensions" : {
                "KHR_materials_unlit" : {}
            },
            "name" : "Material_063_3ED452ED_c_bmp.001",
            "pbrMetallicRoughness" : {
                "baseColorTexture" : {
                    "index" : 0,
                    "texCoord" : 0
                }
            }
        },
        {
            "doubleSided" : true,
            "emissiveFactor" : [
                0,
                0,
                0
            ],
            "name" : "island grass",
            "pbrMetallicRoughness" : {
                "baseColorTexture" : {
                    "index" : 1,
                    "texCoord" : 0
                },
                "metallicFactor" : 0,
                "roughnessFactor" : 0.5
            }
        },
        {
            "doubleSided" : true,
            "emissiveFactor" : [
                0,
                0,
                0
            ],
            "name" : "grass bottom",
            "pbrMetallicRoughness" : {
                "baseColorTexture" : {
                    "index" : 2,
                    "texCoord" : 0
                },
                "metallicFactor" : 0,
                "roughnessFactor" : 0.5
            }
        }
    ],
    "meshes" : [
        {
            "name" : "Sphere.006",
            "primitives" : [
                {
                    "attributes" : {
                        "POSITION" : 0,
                        "NORMAL" : 1,
                        "TANGENT" : 2,
                        "TEXCOORD_0" : 3
                    },
                    "indices" : 4,
                    "material" : 0
                },
                {
                    "attributes" : {
                        "POSITION" : 5,
                        "NORMAL" : 6,
                        "TANGENT" : 7,
                        "TEXCOORD_0" : 8
                    },
                    "indices" : 9,
                    "material" : 1
                },
                {
                    "attributes" : {
                        "POSITION" : 10,
                        "NORMAL" : 11,
                        "TANGENT" : 12,
                        "TEXCOORD_0" : 13
                    },
                    "indices" : 14,
                    "material" : 2
                }
            ]
        },
        {
            "name" : "Icosphere.004",
            "primitives" : [
                {
                    "attributes" : {
                        "POSITION" : 15,
                        "NORMAL" : 16,
                        "TANGENT" : 17,
                        "TEXCOORD_0" : 18
                    },
                    "indices" : 19,
                    "material" : 3
                }
            ]
        },
        {
            "name" : "Cone.002",
            "primitives" : [
                {
                    "attributes" : {
                        "POSITION" : 20,
                        "NORMAL" : 21,
                        "TANGENT" : 22,
                        "TEXCOORD_0" : 23
                    },
                    "indices" : 24,
                    "material" : 4
                }
            ]
        }
    ],
    "textures" : [
        {
            "source" : 0
        },
        {
            "source" : 1
        },
        {
            "source" : 2
        }
    ],
    "images" : [
        {
            "bufferView" : 15,
            "mimeType" : "image/png",
            "name" : "body"
        },
        {
            "bufferView" : 21,
            "mimeType" : "image/png",
            "name" : "white_smooth_texture"
        },
        {
            "bufferView" : 27,
            "mimeType" : "image/png",
            "name" : "gray_smooth_stone"
        }
    ],
    "accessors" : [
        {
            "bufferView" : 0,
            "componentType" : 5126,
            "count" : 1118,
            "max" : [
                2.5615954399108887,
                1.4640647172927856,
                -7.147010803222656
            ],
            "min" : [
                -2.403109073638916,
                0.7362334728240967,
                -8.316957473754883
            ],
            "type" : "VEC3"
        },
        {
            "bufferView" : 1,
            "componentType" : 5126,
            "count" : 1118,
            "type" : "VEC3"
        },
        {
            "bufferView" : 2,
            "componentType" : 5126,
            "count" : 1118,
            "type" : "VEC4"
        },
        {
            "bufferView" : 3,
            "componentType" : 5126,
            "count" : 1118,
            "type" : "VEC2"
        },
        {
            "bufferView" : 4,
            "componentType" : 5123,
            "count" : 5760,
            "type" : "SCALAR"
        },
        {
            "bufferView" : 5,
            "componentType" : 5126,
            "count" : 1118,
            "max" : [
                2.9673430919647217,
                1.900750756263733,
                -5.8912224769592285
            ],
            "min" : [
                -2.808856725692749,
                -0.09924924373626709,
                -7.8912224769592285
            ],
            "type" : "VEC3"
        },
        {
            "bufferView" : 6,
            "componentType" : 5126,
            "count" : 1118,
            "type" : "VEC3"
        },
        {
            "bufferView" : 7,
            "componentType" : 5126,
            "count" : 1118,
            "type" : "VEC4"
        },
        {
            "bufferView" : 8,
            "componentType" : 5126,
            "count" : 1118,
            "type" : "VEC2"
        },
        {
            "bufferView" : 9,
            "componentType" : 5123,
            "count" : 5760,
            "type" : "SCALAR"
        },
        {
            "bufferView" : 10,
            "componentType" : 5126,
            "count" : 22,
            "max" : [
                16.071109771728516,
                4.887845039367676,
                8.20934772491455
            ],
            "min" : [
                -16.14271354675293,
                -4.292595386505127,
                -7.893810749053955
            ],
            "type" : "VEC3"
        },
        {
            "bufferView" : 11,
            "componentType" : 5126,
            "count" : 22,
            "type" : "VEC3"
        },
        {
            "bufferView" : 12,
            "componentType" : 5126,
            "count" : 22,
            "type" : "VEC4"
        },
        {
            "bufferView" : 13,
            "componentType" : 5126,
            "count" : 22,
            "type" : "VEC2"
        },
        {
            "bufferView" : 14,
            "componentType" : 5123,
            "count" : 60,
            "type" : "SCALAR"
        },
        {
            "bufferView" : 16,
            "componentType" : 5126,
            "count" : 65,
            "max" : [
                0.9510578513145447,
                0.5257376432418823,
                0.9999999403953552
            ],
            "min" : [
                -0.9510578513145447,
                -0.9237551093101501,
                -0.9999999403953552
            ],
            "type" : "VEC3"
        },
        {
            "bufferView" : 17,
            "componentType" : 5126,
            "count" : 65,
            "type" : "VEC3"
        },
        {
            "bufferView" : 18,
            "componentType" : 5126,
            "count" : 65,
            "type" : "VEC4"
        },
        {
            "bufferView" : 19,
            "componentType" : 5126,
            "count" : 65,
            "type" : "VEC2"
        },
        {
            "bufferView" : 20,
            "componentType" : 5123,
            "count" : 150,
            "type" : "SCALAR"
        },
        {
            "bufferView" : 22,
            "componentType" : 5126,
            "count" : 16,
            "max" : [
                1,
                1,
                1
            ],
            "min" : [
                -1,
                -1,
                -1
            ],
            "type" : "VEC3"
        },
        {
            "bufferView" : 23,
            "componentType" : 5126,
            "count" : 16,
            "type" : "VEC3"
        },
        {
            "bufferView" : 24,
            "componentType" : 5126,
            "count" : 16,
            "type" : "VEC4"
        },
        {
            "bufferView" : 25,
            "componentType" : 5126,
            "count" : 16,
            "type" : "VEC2"
        },
        {
            "bufferView" : 26,
            "componentType" : 5123,
            "count" : 18,
            "type" : "SCALAR"
        },
        {
            "bufferView" : 28,
            "componentType" : 5126,
            "count" : 291,
            "max" : [
                12.083333333333334
            ],
            "min" : [
                0
            ],
            "type" : "SCALAR"
        },
        {
            "bufferView" : 29,
            "componentType" : 5126,
            "count" : 291,
            "type" : "VEC4"
        }
    ],
    "bufferViews" : [
        {
            "buffer" : 0,
            "byteLength" : 13416,
            "byteOffset" : 0
        },
        {
            "buffer" : 0,
            "byteLength" : 13416,
            "byteOffset" : 13416
        },
        {
            "buffer" : 0,
            "byteLength" : 17888,
            "byteOffset" : 26832
        },
        {
            "buffer" : 0,
            "byteLength" : 8944,
            "byteOffset" : 44720
        },
        {
            "buffer" : 0,
            "byteLength" : 11520,
            "byteOffset" : 53664
        },
        {
            "buffer" : 0,
            "byteLength" : 13416,
            "byteOffset" : 65184
        },
        {
            "buffer" : 0,
            "byteLength" : 13416,
            "byteOffset" : 78600
        },
        {
            "buffer" : 0,
            "byteLength" : 17888,
            "byteOffset" : 92016
        },
        {
            "buffer" : 0,
            "byteLength" : 8944,
            "byteOffset" : 109904
        },
        {
            "buffer" : 0,
            "byteLength" : 11520,
            "byteOffset" : 118848
        },
        {
            "buffer" : 0,
            "byteLength" : 264,
            "byteOffset" : 130368
        },
        {
            "buffer" : 0,
            "byteLength" : 264,
            "byteOffset" : 130632
        },
        {
            "buffer" : 0,
            "byteLength" : 352,
            "byteOffset" : 130896
        },
        {
            "buffer" : 0,
            "byteLength" : 176,
            "byteOffset" : 131248
        },
        {
            "buffer" : 0,
            "byteLength" : 120,
            "byteOffset" : 131424
        },
        {
            "buffer" : 0,
            "byteLength" : 835,
            "byteOffset" : 131544
        },
        {
            "buffer" : 0,
            "byteLength" : 780,
            "byteOffset" : 132380
        },
        {
            "buffer" : 0,
            "byteLength" : 780,
            "byteOffset" : 133160
        },
        {
            "buffer" : 0,
            "byteLength" : 1040,
            "byteOffset" : 133940
        },
        {
            "buffer" : 0,
            "byteLength" : 520,
            "byteOffset" : 134980
        },
        {
            "buffer" : 0,
            "byteLength" : 300,
            "byteOffset" : 135500
        },
        {
            "buffer" : 0,
            "byteLength" : 5398,
            "byteOffset" : 135800
        },
        {
            "buffer" : 0,
            "byteLength" : 192,
            "byteOffset" : 141200
        },
        {
            "buffer" : 0,
            "byteLength" : 192,
            "byteOffset" : 141392
        },
        {
            "buffer" : 0,
            "byteLength" : 256,
            "byteOffset" : 141584
        },
        {
            "buffer" : 0,
            "byteLength" : 128,
            "byteOffset" : 141840
        },
        {
            "buffer" : 0,
            "byteLength" : 36,
            "byteOffset" : 141968
        },
        {
            "buffer" : 0,
            "byteLength" : 5416,
            "byteOffset" : 142004
        },
        {
            "buffer" : 0,
            "byteLength" : 1164,
            "byteOffset" : 147420
        },
        {
            "buffer" : 0,
            "byteLength" : 4656,
            "byteOffset" : 148584
        }
    ],
    "buffers" : [
        {
            "byteLength" : 153240,
            "uri" : "data:application/octet-stream;base64,"
        }
    ]
}
