{
    "asset" : {
        "generator" : "Khronos glTF Blender I/O v1.1.46",
        "version" : "2.0"
    },
    "extensionsUsed" : [
        "KHR_materials_unlit"
    ],
    "scene" : 0,
    "scenes" : [
        {
            "name" : "Scene",
            "nodes" : [
                0
            ]
        }
    ],
    "nodes" : [
        {
            "mesh" : 0,
            "name" : "Sphere.004",
            "rotation" : [
                0.07908227294683456,
                0,
                0,
                0.9968680739402771
            ],
            "scale" : [
                0.562960147857666,
                1.6988434791564941,
                0.38758811354637146
            ],
            "translation" : [
                -0.06611630320549011,
                16.028459548950195,
                60.195167541503906
            ]
        }
    ],
    "materials" : [
        {
            "doubleSided" : true,
            "extensions" : {
                "KHR_materials_unlit" : {}
            },
            "name" : "star eyes white",
            "pbrMetallicRoughness" : {
                "baseColorFactor" : [
                    0.800000011920929,
                    0.800000011920929,
                    0.800000011920929,
                    1
                ]
            }
        },
        {
            "doubleSided" : true,
            "emissiveFactor" : [
                0,
                0,
                0
            ],
            "name" : "star eyes",
            "pbrMetallicRoughness" : {
                "baseColorFactor" : [
                    0,
                    0,
                    0,
                    1
                ],
                "metallicFactor" : 0,
                "roughnessFactor" : 0.5
            }
        },
        {
            "doubleSided" : true,
            "extensions" : {
                "KHR_materials_unlit" : {}
            },
            "name" : "Material_063_3ED452ED_c_bmp.001",
            "pbrMetallicRoughness" : {
                "baseColorTexture" : {
                    "index" : 0,
                    "texCoord" : 0
                }
            }
        }
    ],
    "meshes" : [
        {
            "name" : "Sphere.006",
            "primitives" : [
                {
                    "attributes" : {
                        "POSITION" : 0,
                        "NORMAL" : 1,
                        "TANGENT" : 2,
                        "TEXCOORD_0" : 3
                    },
                    "indices" : 4,
                    "material" : 0
                },
                {
                    "attributes" : {
                        "POSITION" : 5,
                        "NORMAL" : 6,
                        "TANGENT" : 7,
                        "TEXCOORD_0" : 8
                    },
                    "indices" : 9,
                    "material" : 1
                },
                {
                    "attributes" : {
                        "POSITION" : 10,
                        "NORMAL" : 11,
                        "TANGENT" : 12,
                        "TEXCOORD_0" : 13
                    },
                    "indices" : 14,
                    "material" : 2
                }
            ]
        }
    ],
    "textures" : [
        {
            "source" : 0
        }
    ],
    "images" : [
        {
            "bufferView" : 15,
            "mimeType" : "image/png",
            "name" : "body"
        }
    ],
    "accessors" : [
        {
            "bufferView" : 0,
            "componentType" : 5126,
            "count" : 7936,
            "max" : [
                2.5997960567474365,
                1.6185098886489868,
                -7.365555286407471
            ],
            "min" : [
                -2.364908456802368,
                0.8906786441802979,
                -8.535502433776855
            ],
            "type" : "VEC3"
        },
        {
            "bufferView" : 1,
            "componentType" : 5126,
            "count" : 7936,
            "type" : "VEC3"
        },
        {
            "bufferView" : 2,
            "componentType" : 5126,
            "count" : 7936,
            "type" : "VEC4"
        },
        {
            "bufferView" : 3,
            "componentType" : 5126,
            "count" : 7936,
            "type" : "VEC2"
        },
        {
            "bufferView" : 4,
            "componentType" : 5123,
            "count" : 11520,
            "type" : "SCALAR"
        },
        {
            "bufferView" : 5,
            "componentType" : 5126,
            "count" : 7936,
            "max" : [
                3.0055437088012695,
                2.0551958084106445,
                -6.109766960144043
            ],
            "min" : [
                -2.770656108856201,
                0.05519592761993408,
                -8.109766960144043
            ],
            "type" : "VEC3"
        },
        {
            "bufferView" : 6,
            "componentType" : 5126,
            "count" : 7936,
            "type" : "VEC3"
        },
        {
            "bufferView" : 7,
            "componentType" : 5126,
            "count" : 7936,
            "type" : "VEC4"
        },
        {
            "bufferView" : 8,
            "componentType" : 5126,
            "count" : 7936,
            "type" : "VEC2"
        },
        {
            "bufferView" : 9,
            "componentType" : 5123,
            "count" : 11520,
            "type" : "SCALAR"
        },
        {
            "bufferView" : 10,
            "componentType" : 5126,
            "count" : 120,
            "max" : [
                16.10930824279785,
                5.042289733886719,
                7.990802764892578
            ],
            "min" : [
                -16.104515075683594,
                -4.138150215148926,
                -8.112356185913086
            ],
            "type" : "VEC3"
        },
        {
            "bufferView" : 11,
            "componentType" : 5126,
            "count" : 120,
            "type" : "VEC3"
        },
        {
            "bufferView" : 12,
            "componentType" : 5126,
            "count" : 120,
            "type" : "VEC4"
        },
        {
            "bufferView" : 13,
            "componentType" : 5126,
            "count" : 120,
            "type" : "VEC2"
        },
        {
            "bufferView" : 14,
            "componentType" : 5123,
            "count" : 120,
            "type" : "SCALAR"
        }
    ],
    "bufferViews" : [
        {
            "buffer" : 0,
            "byteLength" : 95232,
            "byteOffset" : 0
        },
        {
            "buffer" : 0,
            "byteLength" : 95232,
            "byteOffset" : 95232
        },
        {
            "buffer" : 0,
            "byteLength" : 126976,
            "byteOffset" : 190464
        },
        {
            "buffer" : 0,
            "byteLength" : 63488,
            "byteOffset" : 317440
        },
        {
            "buffer" : 0,
            "byteLength" : 23040,
            "byteOffset" : 380928
        },
        {
            "buffer" : 0,
            "byteLength" : 95232,
            "byteOffset" : 403968
        },
        {
            "buffer" : 0,
            "byteLength" : 95232,
            "byteOffset" : 499200
        },
        {
            "buffer" : 0,
            "byteLength" : 126976,
            "byteOffset" : 594432
        },
        {
            "buffer" : 0,
            "byteLength" : 63488,
            "byteOffset" : 721408
        },
        {
            "buffer" : 0,
            "byteLength" : 23040,
            "byteOffset" : 784896
        },
        {
            "buffer" : 0,
            "byteLength" : 1440,
            "byteOffset" : 807936
        },
        {
            "buffer" : 0,
            "byteLength" : 1440,
            "byteOffset" : 809376
        },
        {
            "buffer" : 0,
            "byteLength" : 1920,
            "byteOffset" : 810816
        },
        {
            "buffer" : 0,
            "byteLength" : 960,
            "byteOffset" : 812736
        },
        {
            "buffer" : 0,
            "byteLength" : 240,
            "byteOffset" : 813696
        },
        {
            "buffer" : 0,
            "byteLength" : 835,
            "byteOffset" : 813936
        }
    ],
    "buffers" : [
        {
            "byteLength" : 814772,
            "uri" : "data:application/octet-stream;base64,"
        }
    ]
}
