{
    "asset" : {
        "generator" : "Khronos glTF Blender I/O v1.1.46",
        "version" : "2.0"
    },
    "scene" : 0,
    "scenes" : [
        {
            "name" : "Scene",
            "nodes" : [
                0,
                1,
                2,
                3,
                4,
                5
            ]
        }
    ],
    "nodes" : [
        {
            "mesh" : 0,
            "name" : "LLL.021",
            "rotation" : [
                0.7071068286895752,
                0,
                0,
                0.7071067094802856
            ],
            "scale" : [
                0.2491370588541031,
                0.2491370588541031,
                0.34612172842025757
            ],
            "translation" : [
                0,
                3.2018280029296875,
                -35.24158477783203
            ]
        },
        {
            "mesh" : 1,
            "name" : "Cube.006",
            "scale" : [
                5.592978000640869,
                3.8506922721862793,
                2.0042734146118164
            ],
            "translation" : [
                0,
                8.61370849609375,
                -34.069053649902344
            ]
        },
        {
            "mesh" : 2,
            "name" : "Cube.012",
            "scale" : [
                1.9136873483657837,
                0.1989312320947647,
                0.7900028228759766
            ],
            "translation" : [
                0,
                5.815737247467041,
                -32.74333953857422
            ]
        },
        {
            "mesh" : 3,
            "name" : "Cube.014",
            "scale" : [
                0.293556272983551,
                0.15971945226192474,
                0.772749662399292
            ],
            "translation" : [
                0,
                5.290018558502197,
                -32.74333953857422
            ]
        },
        {
            "mesh" : 4,
            "name" : "Cylinder.008",
            "rotation" : [
                0.7071067690849304,
                0,
                0,
                0.7071067690849304
            ],
            "scale" : [
                0.24180583655834198,
                0.24180583655834198,
                0.24180583655834198
            ],
            "translation" : [
                3.0512185096740723,
                5.5374836921691895,
                -32.02069091796875
            ]
        },
        {
            "mesh" : 5,
            "name" : "Cylinder.010",
            "rotation" : [
                0.7071067690849304,
                0,
                0,
                0.7071067690849304
            ],
            "scale" : [
                0.24180583655834198,
                0.24180583655834198,
                0.24180583655834198
            ],
            "translation" : [
                3.657176971435547,
                5.5374836921691895,
                -32.02069091796875
            ]
        }
    ],
    "materials" : [
        {
            "doubleSided" : true,
            "emissiveFactor" : [
                0,
                0,
                0
            ],
            "name" : "1_VMtl010",
            "pbrMetallicRoughness" : {
                "baseColorTexture" : {
                    "index" : 0,
                    "texCoord" : 0
                },
                "metallicFactor" : 0,
                "roughnessFactor" : 0.850928783416748
            }
        },
        {
            "doubleSided" : true,
            "emissiveFactor" : [
                0,
                0,
                0
            ],
            "name" : "2_VMtl035",
            "pbrMetallicRoughness" : {
                "baseColorTexture" : {
                    "index" : 1,
                    "texCoord" : 0
                },
                "metallicFactor" : 0,
                "roughnessFactor" : 0.850928783416748
            }
        },
        {
            "doubleSided" : true,
            "emissiveFactor" : [
                0,
                0,
                0
            ],
            "name" : "tv",
            "pbrMetallicRoughness" : {
                "baseColorTexture" : {
                    "index" : 2,
                    "texCoord" : 0
                },
                "metallicFactor" : 0,
                "roughnessFactor" : 0.5
            }
        },
        {
            "doubleSided" : true,
            "emissiveFactor" : [
                0,
                0,
                0
            ],
            "name" : "tv buttons",
            "pbrMetallicRoughness" : {
                "baseColorTexture" : {
                    "index" : 3,
                    "texCoord" : 0
                },
                "metallicFactor" : 0,
                "roughnessFactor" : 0.5
            }
        },
        {
            "doubleSided" : true,
            "emissiveFactor" : [
                0,
                0,
                0
            ],
            "name" : "tv yellow",
            "pbrMetallicRoughness" : {
                "baseColorFactor" : [
                    0.8000000715255737,
                    0.670661985874176,
                    0,
                    1
                ],
                "metallicFactor" : 0,
                "roughnessFactor" : 0.5
            }
        },
        {
            "doubleSided" : true,
            "emissiveFactor" : [
                0,
                0,
                0
            ],
            "name" : "tv white",
            "pbrMetallicRoughness" : {
                "baseColorFactor" : [
                    1,
                    1,
                    1,
                    1
                ],
                "metallicFactor" : 0,
                "roughnessFactor" : 0.5
            }
        }
    ],
    "meshes" : [
        {
            "name" : "LLL.021",
            "primitives" : [
                {
                    "attributes" : {
                        "POSITION" : 0,
                        "NORMAL" : 1,
                        "TANGENT" : 2,
                        "TEXCOORD_0" : 3
                    },
                    "indices" : 4,
                    "material" : 0
                },
                {
                    "attributes" : {
                        "POSITION" : 5,
                        "NORMAL" : 6,
                        "TANGENT" : 7,
                        "TEXCOORD_0" : 8
                    },
                    "indices" : 9,
                    "material" : 1
                }
            ]
        },
        {
            "name" : "Cube.034",
            "primitives" : [
                {
                    "attributes" : {
                        "POSITION" : 10,
                        "NORMAL" : 11,
                        "TEXCOORD_0" : 12
                    },
                    "indices" : 13,
                    "material" : 2
                }
            ]
        },
        {
            "name" : "Cube.037",
            "primitives" : [
                {
                    "attributes" : {
                        "POSITION" : 14,
                        "NORMAL" : 15,
                        "TANGENT" : 16,
                        "TEXCOORD_0" : 17
                    },
                    "indices" : 18,
                    "material" : 3
                }
            ]
        },
        {
            "name" : "Cube.038",
            "primitives" : [
                {
                    "attributes" : {
                        "POSITION" : 19,
                        "NORMAL" : 20,
                        "TANGENT" : 21,
                        "TEXCOORD_0" : 22
                    },
                    "indices" : 23,
                    "material" : 3
                }
            ]
        },
        {
            "name" : "Cylinder.005",
            "primitives" : [
                {
                    "attributes" : {
                        "POSITION" : 24,
                        "NORMAL" : 25,
                        "TEXCOORD_0" : 26
                    },
                    "indices" : 27,
                    "material" : 4
                }
            ]
        },
        {
            "name" : "Cylinder.013",
            "primitives" : [
                {
                    "attributes" : {
                        "POSITION" : 28,
                        "NORMAL" : 29,
                        "TEXCOORD_0" : 30
                    },
                    "indices" : 27,
                    "material" : 5
                }
            ]
        }
    ],
    "textures" : [
        {
            "source" : 0
        },
        {
            "source" : 1
        },
        {
            "source" : 2
        },
        {
            "source" : 3
        }
    ],
    "images" : [
        {
            "bufferView" : 5,
            "mimeType" : "image/png",
            "name" : "621A6A0A_c"
        },
        {
            "bufferView" : 11,
            "mimeType" : "image/png",
            "name" : "287771FA_c"
        },
        {
            "bufferView" : 16,
            "mimeType" : "image/png",
            "name" : "stone_square_tiles"
        },
        {
            "bufferView" : 22,
            "mimeType" : "image/png",
            "name" : "rough_concrete"
        }
    ],
    "accessors" : [
        {
            "bufferView" : 0,
            "componentType" : 5126,
            "count" : 12,
            "max" : [
                24.52569580078125,
                24.52142333984375,
                19.762664794921875
            ],
            "min" : [
                -24.51800537109375,
                -24.51318359375,
                -4.797332763671875
            ],
            "type" : "VEC3"
        },
        {
            "bufferView" : 1,
            "componentType" : 5126,
            "count" : 12,
            "type" : "VEC3"
        },
        {
            "bufferView" : 2,
            "componentType" : 5126,
            "count" : 12,
            "type" : "VEC4"
        },
        {
            "bufferView" : 3,
            "componentType" : 5126,
            "count" : 12,
            "type" : "VEC2"
        },
        {
            "bufferView" : 4,
            "componentType" : 5123,
            "count" : 12,
            "type" : "SCALAR"
        },
        {
            "bufferView" : 6,
            "componentType" : 5126,
            "count" : 4,
            "max" : [
                24.52569580078125,
                24.52142333984375,
                -4.797332763671875
            ],
            "min" : [
                -24.51800537109375,
                -24.51318359375,
                -4.797332763671875
            ],
            "type" : "VEC3"
        },
        {
            "bufferView" : 7,
            "componentType" : 5126,
            "count" : 4,
            "type" : "VEC3"
        },
        {
            "bufferView" : 8,
            "componentType" : 5126,
            "count" : 4,
            "type" : "VEC4"
        },
        {
            "bufferView" : 9,
            "componentType" : 5126,
            "count" : 4,
            "type" : "VEC2"
        },
        {
            "bufferView" : 10,
            "componentType" : 5123,
            "count" : 6,
            "type" : "SCALAR"
        },
        {
            "bufferView" : 12,
            "componentType" : 5126,
            "count" : 188,
            "max" : [
                1,
                1,
                1.0123279094696045
            ],
            "min" : [
                -1,
                -1,
                -3.016286849975586
            ],
            "type" : "VEC3"
        },
        {
            "bufferView" : 13,
            "componentType" : 5126,
            "count" : 188,
            "type" : "VEC3"
        },
        {
            "bufferView" : 14,
            "componentType" : 5126,
            "count" : 188,
            "type" : "VEC2"
        },
        {
            "bufferView" : 15,
            "componentType" : 5123,
            "count" : 360,
            "type" : "SCALAR"
        },
        {
            "bufferView" : 17,
            "componentType" : 5126,
            "count" : 24,
            "max" : [
                1,
                1,
                1
            ],
            "min" : [
                -1,
                -1,
                -1
            ],
            "type" : "VEC3"
        },
        {
            "bufferView" : 18,
            "componentType" : 5126,
            "count" : 24,
            "type" : "VEC3"
        },
        {
            "bufferView" : 19,
            "componentType" : 5126,
            "count" : 24,
            "type" : "VEC4"
        },
        {
            "bufferView" : 20,
            "componentType" : 5126,
            "count" : 24,
            "type" : "VEC2"
        },
        {
            "bufferView" : 21,
            "componentType" : 5123,
            "count" : 36,
            "type" : "SCALAR"
        },
        {
            "bufferView" : 23,
            "componentType" : 5126,
            "count" : 96,
            "max" : [
                5.88514518737793,
                1,
                1
            ],
            "min" : [
                -5.88514518737793,
                -1,
                -1
            ],
            "type" : "VEC3"
        },
        {
            "bufferView" : 24,
            "componentType" : 5126,
            "count" : 96,
            "type" : "VEC3"
        },
        {
            "bufferView" : 25,
            "componentType" : 5126,
            "count" : 96,
            "type" : "VEC4"
        },
        {
            "bufferView" : 26,
            "componentType" : 5126,
            "count" : 96,
            "type" : "VEC2"
        },
        {
            "bufferView" : 27,
            "componentType" : 5123,
            "count" : 144,
            "type" : "SCALAR"
        },
        {
            "bufferView" : 28,
            "componentType" : 5126,
            "count" : 60,
            "max" : [
                0.9510565400123596,
                1,
                0.8090170621871948
            ],
            "min" : [
                -0.9510564804077148,
                -1,
                -1
            ],
            "type" : "VEC3"
        },
        {
            "bufferView" : 29,
            "componentType" : 5126,
            "count" : 60,
            "type" : "VEC3"
        },
        {
            "bufferView" : 30,
            "componentType" : 5126,
            "count" : 60,
            "type" : "VEC2"
        },
        {
            "bufferView" : 31,
            "componentType" : 5123,
            "count" : 108,
            "type" : "SCALAR"
        },
        {
            "bufferView" : 32,
            "componentType" : 5126,
            "count" : 60,
            "max" : [
                0.9510565400123596,
                1,
                0.8090170621871948
            ],
            "min" : [
                -0.9510564804077148,
                -1,
                -1
            ],
            "type" : "VEC3"
        },
        {
            "bufferView" : 33,
            "componentType" : 5126,
            "count" : 60,
            "type" : "VEC3"
        },
        {
            "bufferView" : 34,
            "componentType" : 5126,
            "count" : 60,
            "type" : "VEC2"
        }
    ],
    "bufferViews" : [
        {
            "buffer" : 0,
            "byteLength" : 144,
            "byteOffset" : 0
        },
        {
            "buffer" : 0,
            "byteLength" : 144,
            "byteOffset" : 144
        },
        {
            "buffer" : 0,
            "byteLength" : 192,
            "byteOffset" : 288
        },
        {
            "buffer" : 0,
            "byteLength" : 96,
            "byteOffset" : 480
        },
        {
            "buffer" : 0,
            "byteLength" : 24,
            "byteOffset" : 576
        },
        {
            "buffer" : 0,
            "byteLength" : 1597,
            "byteOffset" : 600
        },
        {
            "buffer" : 0,
            "byteLength" : 48,
            "byteOffset" : 2200
        },
        {
            "buffer" : 0,
            "byteLength" : 48,
            "byteOffset" : 2248
        },
        {
            "buffer" : 0,
            "byteLength" : 64,
            "byteOffset" : 2296
        },
        {
            "buffer" : 0,
            "byteLength" : 32,
            "byteOffset" : 2360
        },
        {
            "buffer" : 0,
            "byteLength" : 12,
            "byteOffset" : 2392
        },
        {
            "buffer" : 0,
            "byteLength" : 1074,
            "byteOffset" : 2404
        },
        {
            "buffer" : 0,
            "byteLength" : 2256,
            "byteOffset" : 3480
        },
        {
            "buffer" : 0,
            "byteLength" : 2256,
            "byteOffset" : 5736
        },
        {
            "buffer" : 0,
            "byteLength" : 1504,
            "byteOffset" : 7992
        },
        {
            "buffer" : 0,
            "byteLength" : 720,
            "byteOffset" : 9496
        },
        {
            "buffer" : 0,
            "byteLength" : 5419,
            "byteOffset" : 10216
        },
        {
            "buffer" : 0,
            "byteLength" : 288,
            "byteOffset" : 15636
        },
        {
            "buffer" : 0,
            "byteLength" : 288,
            "byteOffset" : 15924
        },
        {
            "buffer" : 0,
            "byteLength" : 384,
            "byteOffset" : 16212
        },
        {
            "buffer" : 0,
            "byteLength" : 192,
            "byteOffset" : 16596
        },
        {
            "buffer" : 0,
            "byteLength" : 72,
            "byteOffset" : 16788
        },
        {
            "buffer" : 0,
            "byteLength" : 5717,
            "byteOffset" : 16860
        },
        {
            "buffer" : 0,
            "byteLength" : 1152,
            "byteOffset" : 22580
        },
        {
            "buffer" : 0,
            "byteLength" : 1152,
            "byteOffset" : 23732
        },
        {
            "buffer" : 0,
            "byteLength" : 1536,
            "byteOffset" : 24884
        },
        {
            "buffer" : 0,
            "byteLength" : 768,
            "byteOffset" : 26420
        },
        {
            "buffer" : 0,
            "byteLength" : 288,
            "byteOffset" : 27188
        },
        {
            "buffer" : 0,
            "byteLength" : 720,
            "byteOffset" : 27476
        },
        {
            "buffer" : 0,
            "byteLength" : 720,
            "byteOffset" : 28196
        },
        {
            "buffer" : 0,
            "byteLength" : 480,
            "byteOffset" : 28916
        },
        {
            "buffer" : 0,
            "byteLength" : 216,
            "byteOffset" : 29396
        },
        {
            "buffer" : 0,
            "byteLength" : 720,
            "byteOffset" : 29612
        },
        {
            "buffer" : 0,
            "byteLength" : 720,
            "byteOffset" : 30332
        },
        {
            "buffer" : 0,
            "byteLength" : 480,
            "byteOffset" : 31052
        }
    ],
    "buffers" : [
        {
            "byteLength" : 31532,
            "uri" : "data:application/octet-stream;base64,"
        }
    ]
}
