{
    "asset" : {
        "generator" : "Khronos glTF Blender I/O v1.1.46",
        "version" : "2.0"
    },
    "scene" : 0,
    "scenes" : [
        {
            "name" : "Scene",
            "nodes" : [
                0
            ]
        }
    ],
    "nodes" : [
        {
            "mesh" : 0,
            "name" : "Plane.001_Plane.010",
            "rotation" : [
                0.70220547914505,
                0.083111472427845,
                -0.0831114798784256,
                0.7022054195404053
            ],
            "scale" : [
                9.261584281921387,
                9.261584281921387,
                9.261584281921387
            ],
            "translation" : [
                105.75944519042969,
                32.144187927246094,
                265.1945495605469
            ]
        }
    ],
    "materials" : [
        {
            "doubleSided" : true,
            "emissiveFactor" : [
                0,
                0,
                0
            ],
            "name" : "greeeen",
            "pbrMetallicRoughness" : {
                "baseColorFactor" : [
                    0.004724108148366213,
                    0.3931143581867218,
                    0,
                    1
                ],
                "metallicFactor" : 0,
                "roughnessFactor" : 0.6474654078483582
            }
        },
        {
            "doubleSided" : true,
            "emissiveFactor" : [
                0,
                0,
                0
            ],
            "name" : "yelo",
            "pbrMetallicRoughness" : {
                "baseColorFactor" : [
                    0.45753100514411926,
                    0.27452999353408813,
                    0,
                    1
                ],
                "metallicFactor" : 0,
                "roughnessFactor" : 0.5
            }
        },
        {
            "doubleSided" : true,
            "emissiveFactor" : [
                0,
                0,
                0
            ],
            "name" : "redd",
            "pbrMetallicRoughness" : {
                "baseColorFactor" : [
                    0.800000011920929,
                    0,
                    0.0012639999622479081,
                    1
                ],
                "metallicFactor" : 0,
                "roughnessFactor" : 0.5
            }
        },
        {
            "doubleSided" : true,
            "emissiveFactor" : [
                0,
                0,
                0
            ],
            "name" : "bloo",
            "pbrMetallicRoughness" : {
                "baseColorFactor" : [
                    0.0002300000051036477,
                    0,
                    0.44797900319099426,
                    1
                ],
                "metallicFactor" : 0,
                "roughnessFactor" : 0.5
            }
        }
    ],
    "meshes" : [
        {
            "name" : "Plane.001_Plane.010",
            "primitives" : [
                {
                    "attributes" : {
                        "POSITION" : 0,
                        "NORMAL" : 1,
                        "TEXCOORD_0" : 2
                    },
                    "indices" : 3,
                    "material" : 0
                },
                {
                    "attributes" : {
                        "POSITION" : 4,
                        "NORMAL" : 5,
                        "TEXCOORD_0" : 6
                    },
                    "indices" : 7,
                    "material" : 1
                },
                {
                    "attributes" : {
                        "POSITION" : 8,
                        "NORMAL" : 9,
                        "TEXCOORD_0" : 10
                    },
                    "indices" : 11,
                    "material" : 2
                },
                {
                    "attributes" : {
                        "POSITION" : 12,
                        "NORMAL" : 13,
                        "TEXCOORD_0" : 14
                    },
                    "indices" : 15,
                    "material" : 3
                }
            ]
        }
    ],
    "accessors" : [
        {
            "bufferView" : 0,
            "componentType" : 5126,
            "count" : 26,
            "max" : [
                7.387020111083984,
                5.560667037963867,
                5.3755292892456055
            ],
            "min" : [
                -7.387186050415039,
                -5.560571670532227,
                -4.391329765319824
            ],
            "type" : "VEC3"
        },
        {
            "bufferView" : 1,
            "componentType" : 5126,
            "count" : 26,
            "type" : "VEC3"
        },
        {
            "bufferView" : 2,
            "componentType" : 5126,
            "count" : 26,
            "type" : "VEC2"
        },
        {
            "bufferView" : 3,
            "componentType" : 5123,
            "count" : 66,
            "type" : "SCALAR"
        },
        {
            "bufferView" : 4,
            "componentType" : 5126,
            "count" : 20,
            "max" : [
                7.387020111083984,
                5.560667037963867,
                5.3755292892456055
            ],
            "min" : [
                -7.387186050415039,
                -5.560571670532227,
                -4.391329765319824
            ],
            "type" : "VEC3"
        },
        {
            "bufferView" : 5,
            "componentType" : 5126,
            "count" : 20,
            "type" : "VEC3"
        },
        {
            "bufferView" : 6,
            "componentType" : 5126,
            "count" : 20,
            "type" : "VEC2"
        },
        {
            "bufferView" : 7,
            "componentType" : 5123,
            "count" : 30,
            "type" : "SCALAR"
        },
        {
            "bufferView" : 8,
            "componentType" : 5126,
            "count" : 16,
            "max" : [
                4.78523063659668,
                4.213314056396484,
                0.14765501022338867
            ],
            "min" : [
                -4.785396575927734,
                -4.213220596313477,
                -4.391329765319824
            ],
            "type" : "VEC3"
        },
        {
            "bufferView" : 9,
            "componentType" : 5126,
            "count" : 16,
            "type" : "VEC3"
        },
        {
            "bufferView" : 10,
            "componentType" : 5126,
            "count" : 16,
            "type" : "VEC2"
        },
        {
            "bufferView" : 11,
            "componentType" : 5123,
            "count" : 24,
            "type" : "SCALAR"
        },
        {
            "bufferView" : 12,
            "componentType" : 5126,
            "count" : 16,
            "max" : [
                7.387020111083984,
                5.560667037963867,
                5.3755292892456055
            ],
            "min" : [
                -7.387186050415039,
                -5.560571670532227,
                -4.391329765319824
            ],
            "type" : "VEC3"
        },
        {
            "bufferView" : 13,
            "componentType" : 5126,
            "count" : 16,
            "type" : "VEC3"
        },
        {
            "bufferView" : 14,
            "componentType" : 5126,
            "count" : 16,
            "type" : "VEC2"
        },
        {
            "bufferView" : 15,
            "componentType" : 5123,
            "count" : 24,
            "type" : "SCALAR"
        }
    ],
    "bufferViews" : [
        {
            "buffer" : 0,
            "byteLength" : 312,
            "byteOffset" : 0
        },
        {
            "buffer" : 0,
            "byteLength" : 312,
            "byteOffset" : 312
        },
        {
            "buffer" : 0,
            "byteLength" : 208,
            "byteOffset" : 624
        },
        {
            "buffer" : 0,
            "byteLength" : 132,
            "byteOffset" : 832
        },
        {
            "buffer" : 0,
            "byteLength" : 240,
            "byteOffset" : 964
        },
        {
            "buffer" : 0,
            "byteLength" : 240,
            "byteOffset" : 1204
        },
        {
            "buffer" : 0,
            "byteLength" : 160,
            "byteOffset" : 1444
        },
        {
            "buffer" : 0,
            "byteLength" : 60,
            "byteOffset" : 1604
        },
        {
            "buffer" : 0,
            "byteLength" : 192,
            "byteOffset" : 1664
        },
        {
            "buffer" : 0,
            "byteLength" : 192,
            "byteOffset" : 1856
        },
        {
            "buffer" : 0,
            "byteLength" : 128,
            "byteOffset" : 2048
        },
        {
            "buffer" : 0,
            "byteLength" : 48,
            "byteOffset" : 2176
        },
        {
            "buffer" : 0,
            "byteLength" : 192,
            "byteOffset" : 2224
        },
        {
            "buffer" : 0,
            "byteLength" : 192,
            "byteOffset" : 2416
        },
        {
            "buffer" : 0,
            "byteLength" : 128,
            "byteOffset" : 2608
        },
        {
            "buffer" : 0,
            "byteLength" : 48,
            "byteOffset" : 2736
        }
    ],
    "buffers" : [
        {
            "byteLength" : 2784,
            "uri" : "data:application/octet-stream;base64,"
        }
    ]
}
